<svg width="120" height="120" viewBox="0 0 120 120" fill="none" xmlns="http://www.w3.org/2000/svg">
<circle cx="60" cy="60" r="60" fill="#F3F3F1"/>
<path d="M45 31.875C45 31.3777 44.8025 30.9008 44.4508 30.5492C44.0992 30.1975 43.6223 30 43.125 30C42.6277 30 42.1508 30.1975 41.7992 30.5492C41.4475 30.9008 41.25 31.3777 41.25 31.875V33.75H37.5C35.5109 33.75 33.6032 34.5402 32.1967 35.9467C30.7902 37.3532 30 39.2609 30 41.25V45H90V41.25C90 39.2609 89.2098 37.3532 87.8033 35.9467C86.3968 34.5402 84.4891 33.75 82.5 33.75H78.75V31.875C78.75 31.3777 78.5525 30.9008 78.2008 30.5492C77.8492 30.1975 77.3723 30 76.875 30C76.3777 30 75.9008 30.1975 75.5492 30.5492C75.1975 30.9008 75 31.3777 75 31.875V33.75H45V31.875ZM90 82.5V48.75H30V82.5C30 84.4891 30.7902 86.3968 32.1967 87.8033C33.6032 89.2098 35.5109 90 37.5 90H82.5C84.4891 90 86.3968 89.2098 87.8033 87.8033C89.2098 86.3968 90 84.4891 90 82.5ZM76.875 56.25H80.625C81.1223 56.25 81.5992 56.4475 81.9508 56.7992C82.3025 57.1508 82.5 57.6277 82.5 58.125V61.875C82.5 62.3723 82.3025 62.8492 81.9508 63.2008C81.5992 63.5525 81.1223 63.75 80.625 63.75H76.875C76.3777 63.75 75.9008 63.5525 75.5492 63.2008C75.1975 62.8492 75 62.3723 75 61.875V58.125C75 57.6277 75.1975 57.1508 75.5492 56.7992C75.9008 56.4475 76.3777 56.25 76.875 56.25Z" fill="#FFD233"/>
</svg>
