<svg width="120" height="120" viewBox="0 0 120 120" fill="none" xmlns="http://www.w3.org/2000/svg">
<circle cx="60" cy="60" r="60" fill="#F3F3F1"/>
<g clip-path="url(#clip0)">
<path d="M86.53 73.2375C83.5001 69.8468 79.174 67.4183 74.2655 66.3525L74.1125 66.325L70.5762 71.3C70.5738 71.9624 70.2571 72.5972 69.6951 73.0656C69.1331 73.534 68.3716 73.798 67.5768 73.8C65.9272 73.8 64.5774 72.675 63.0027 69.365V69.285C63.0027 68.4562 62.6077 67.6613 61.9046 67.0753C61.2015 66.4892 60.2479 66.16 59.2535 66.16C58.2591 66.16 57.3055 66.4892 56.6024 67.0753C55.8992 67.6613 55.5042 68.4562 55.5042 69.285V69.3675V69.3625C53.8246 72.675 52.4628 73.7975 50.8162 73.7975C50.0214 73.7955 49.2599 73.5315 48.6979 73.0631C48.1359 72.5947 47.8192 71.9599 47.8168 71.2975L44.3915 66.3125C39.4492 67.3603 35.0836 69.782 32.0159 73.1775L31.9739 73.225C30.758 74.8826 30.0809 76.7755 30.0093 78.7175V78.735C30.0243 79.11 30.0093 79.5475 30.0093 79.985V84.985C30.0093 86.3111 30.6414 87.5828 31.7663 88.5205C32.8913 89.4582 34.4172 89.985 36.0081 89.985H82.4988C84.0898 89.985 85.6156 89.4582 86.7406 88.5205C87.8656 87.5828 88.4976 86.3111 88.4976 84.985V79.985C88.4976 79.55 88.4826 79.11 88.4976 78.735C88.4221 76.7709 87.7336 74.8572 86.5 73.1825L86.533 73.2325L86.53 73.2375ZM43.5036 43.225C43.5036 50.525 48.9625 61.25 59.2505 61.25C69.3585 61.25 74.9973 50.525 74.9973 43.225V43.0625C74.9973 41.3389 74.59 39.6322 73.7987 38.0398C73.0073 36.4474 71.8474 35.0005 70.3852 33.7817C68.923 32.563 67.187 31.5962 65.2765 30.9366C63.3661 30.277 61.3184 29.9375 59.2505 29.9375C57.1826 29.9375 55.1349 30.277 53.2244 30.9366C51.3139 31.5962 49.578 32.563 48.1158 33.7817C46.6536 35.0005 45.4936 36.4474 44.7023 38.0398C43.9109 39.6322 43.5036 41.3389 43.5036 43.0625V43.2325V43.225Z" fill="#F24E1E"/>
</g>
<defs>
<clipPath id="clip0">
<rect width="60" height="60" fill="white" transform="translate(30 30)"/>
</clipPath>
</defs>
</svg>
