<svg width="70" height="70" viewBox="0 0 70 70" fill="none" xmlns="http://www.w3.org/2000/svg">
<rect width="70" height="70" fill="white"/>
<path d="M16.752 61.5333C27.6488 61.5333 35.1317 67.3369 40.3824 67.3369C45.6331 67.3369 56.6606 64.2335 56.6606 39.3978C56.6606 14.5621 41.8254 10.9161 36.0502 10.9161C9.00595 10.9161 -2.54617 61.5333 16.752 61.5333Z" fill="#EFFFFA"/>
<path d="M14.1576 18.3445C13.0847 18.3445 12.2115 17.4467 12.2115 16.3436C12.2115 15.2404 13.0847 14.3427 14.1576 14.3427C15.2306 14.3427 16.1037 15.2404 16.1037 16.3436C16.1037 17.4467 15.2306 18.3445 14.1576 18.3445ZM14.1576 15.6766C13.7995 15.6766 13.5089 15.9754 13.5089 16.3436C13.5089 16.7117 13.7995 17.0105 14.1576 17.0105C14.5157 17.0105 14.8063 16.7117 14.8063 16.3436C14.8063 15.9754 14.5157 15.6766 14.1576 15.6766Z" fill="#A4AFC1"/>
<path d="M51.5721 23.72V30.9073H12.2517V23.72C12.2517 21.7435 13.8245 20.1263 15.7469 20.1263H48.077C49.9993 20.1263 51.5721 21.7435 51.5721 23.72Z" fill="#2FDF84"/>
<path d="M51.5721 30.9073V53.3675C51.5721 55.344 49.9993 56.9612 48.077 56.9612H15.7469C13.8245 56.9612 12.2517 55.344 12.2517 53.3675V30.9073H51.5721Z" fill="#F3F3F1"/>
<path d="M19.6789 20.1263H15.7469C13.8245 20.1263 12.2517 21.7435 12.2517 23.72V30.9073H16.1838V23.72C16.1838 21.7435 17.7566 20.1263 19.6789 20.1263Z" fill="#00B871"/>
<path d="M16.1838 53.3675V30.9073H12.2517V53.3675C12.2517 55.344 13.8245 56.9612 15.7469 56.9612H19.6789C17.7566 56.9612 16.1838 55.344 16.1838 53.3675Z" fill="#D5DBE1"/>
<path d="M51.5722 32.2548H12.2518C11.5283 32.2548 10.9411 31.6511 10.9411 30.9072V23.7199C10.9411 20.9942 13.0959 18.7787 15.7469 18.7787H48.077C50.7281 18.7787 52.8829 20.9942 52.8829 23.7199V30.9072C52.8829 31.6511 52.2957 32.2548 51.5722 32.2548ZM13.5625 29.5596H50.2615V23.7199C50.2615 22.4819 49.2811 21.4739 48.077 21.4739H15.7469C14.5429 21.4739 13.5625 22.4819 13.5625 23.7199V29.5596Z" fill="#222222"/>
<path d="M48.077 58.3087H15.7469C13.0959 58.3087 10.9411 56.0932 10.9411 53.3674V30.9072C10.9411 30.1633 11.5283 29.5596 12.2518 29.5596H51.5722C52.2957 29.5596 52.8829 30.1633 52.8829 30.9072V53.3674C52.8829 56.0932 50.7281 58.3087 48.077 58.3087ZM13.5625 32.2548V53.3674C13.5625 54.6054 14.5429 55.6134 15.7469 55.6134H48.077C49.2811 55.6134 50.2615 54.6054 50.2615 53.3674V32.2548H13.5625Z" fill="#222222"/>
<path d="M19.6791 16.5327H22.3004V24.6183H19.6791V16.5327Z" fill="#222222"/>
<path d="M41.5236 16.5327H44.145V24.6183H41.5236V16.5327Z" fill="#222222"/>
<rect x="3.87903" y="20.4147" width="8.89428" height="9.14491" rx="4.44714" fill="#EFFFFA"/>
<path d="M11.7203 25.4734C10.9609 24.2778 11.0416 23.0523 10.6756 22.4761C10.3095 21.8999 9.2186 20.9064 6.64101 22.6375C4.06342 24.3686 4.71901 26.2504 5.1218 26.884C7.00685 29.8512 13.0654 27.5907 11.7203 25.4734Z" fill="#6CFFCF"/>
<path d="M10.8379 27.6063L10.9799 27.4603L11.2638 27.7522L11.1219 27.8982L10.8379 27.6063Z" fill="#A4AFC1"/>
<path d="M9.9859 27.7507L10.2702 27.459L10.4123 27.6048L10.128 27.8965L9.9859 27.7507Z" fill="#A4AFC1"/>
<path d="M10.8023 26.9114L11.0863 26.6195L11.2283 26.7655L10.9443 27.0574L10.8023 26.9114Z" fill="#A4AFC1"/>
<path d="M7.72363 26.6903C7.72363 27.033 7.9927 27.3097 8.32601 27.3097C8.65933 27.3097 8.92839 27.033 8.92839 26.6903H7.72363Z" fill="#2FDF84"/>
<path d="M9.58099 24.5742V25.1498C9.58099 25.6032 9.77516 26.0334 10.1119 26.3259L10.1121 26.3262L10.1131 26.327C10.1553 26.3641 10.1834 26.4199 10.1834 26.4839C10.1834 26.5974 10.093 26.6903 9.98258 26.6903H8.37623H6.66948C6.55905 26.6903 6.46869 26.5974 6.46869 26.4839C6.46869 26.4199 6.4968 26.3641 6.53897 26.327L6.53997 26.3262L6.54017 26.3259C6.8769 26.0334 7.07107 25.603 7.07107 25.1498V24.5742C7.07107 23.8615 7.63289 23.2839 8.32603 23.2839C9.01917 23.2839 9.58099 23.8615 9.58099 24.5742Z" fill="white"/>
<path d="M6.92048 26.4839C6.92048 26.4199 6.94859 26.3641 6.99075 26.327L6.99176 26.3262L6.99196 26.3259C7.32869 26.0334 7.52286 25.603 7.52286 25.1498V24.5742C7.52286 23.941 7.96681 23.4154 8.55193 23.3058C8.47864 23.2921 8.40334 23.2839 8.32603 23.2839C7.63289 23.2839 7.07107 23.8615 7.07107 24.5742V25.1498C7.07107 25.6032 6.8769 26.0334 6.54017 26.3259L6.53997 26.3262L6.53897 26.327C6.4968 26.3641 6.46869 26.4199 6.46869 26.4839C6.46869 26.5974 6.55905 26.6903 6.66948 26.6903H7.12127C7.01083 26.6903 6.92048 26.5974 6.92048 26.4839Z" fill="#D5DBE1"/>
<path d="M5.71574 22.6129C5.54968 22.6129 5.41455 22.474 5.41455 22.3033C5.41455 22.1325 5.54968 21.9936 5.71574 21.9936C5.8818 21.9936 6.01693 22.1325 6.01693 22.3033C6.01693 22.474 5.8818 22.6129 5.71574 22.6129ZM5.71574 22.2C5.66032 22.2 5.61534 22.2463 5.61534 22.3033C5.61534 22.3603 5.66032 22.4065 5.71574 22.4065C5.77116 22.4065 5.81614 22.3603 5.81614 22.3033C5.81614 22.2463 5.77116 22.2 5.71574 22.2Z" fill="#A4AFC1"/>
<path d="M10.5349 24.5742H10.2337C10.2337 23.9815 10.0092 23.424 9.60156 23.0049L9.81461 22.7859C10.2788 23.2636 10.5349 23.8987 10.5349 24.5742Z" fill="#222222"/>
<path d="M6.4185 24.5742H6.11731C6.11731 23.8987 6.37312 23.2636 6.83776 22.7859L7.0508 23.0049C6.64299 23.424 6.4185 23.9812 6.4185 24.5742Z" fill="#222222"/>
<path d="M8.32604 27.4645C7.91079 27.4645 7.57306 27.1173 7.57306 26.6903H7.87425C7.87425 26.9465 8.07685 27.1548 8.32604 27.1548C8.57522 27.1548 8.77782 26.9465 8.77782 26.6903H9.07901C9.07901 27.1173 8.74128 27.4645 8.32604 27.4645Z" fill="#222222"/>
<path d="M9.9826 26.8452H6.6695C6.47574 26.8452 6.31812 26.6831 6.31812 26.4839C6.31812 26.3782 6.36289 26.278 6.441 26.2093C6.74641 25.944 6.9205 25.5583 6.9205 25.1498V24.5742C6.9205 23.7773 7.55099 23.129 8.32605 23.129C9.10112 23.129 9.73161 23.7773 9.73161 24.5742V25.1498C9.73161 25.5583 9.9057 25.944 10.2091 26.2078C10.2892 26.278 10.334 26.3782 10.334 26.4839C10.334 26.6831 10.1764 26.8452 9.9826 26.8452ZM8.32605 23.4387C7.71705 23.4387 7.22169 23.948 7.22169 24.5742V25.1498C7.22169 25.6496 7.00865 26.1215 6.63738 26.4442C6.63035 26.4504 6.61931 26.4632 6.61931 26.4839C6.61931 26.512 6.6422 26.5355 6.6695 26.5355H9.9826C10.0099 26.5355 10.0328 26.512 10.0328 26.4839C10.0328 26.4632 10.0218 26.4504 10.0151 26.4446C9.64346 26.1215 9.43042 25.6496 9.43042 25.1498V24.5742C9.43042 23.948 8.93506 23.4387 8.32605 23.4387Z" fill="#222222"/>
<path d="M8.17542 22.6645H8.47661V23.2838H8.17542V22.6645Z" fill="#222222"/>
<rect x="44.4086" y="2.66296" width="21.7124" height="22.3242" rx="10.8562" fill="#EFFFFA"/>
<path d="M63.5505 15.0118C61.6967 12.0933 61.8938 9.10163 61.0002 7.69502C60.1066 6.2884 57.4435 3.86323 51.1512 8.08913C44.8589 12.315 46.4593 16.9088 47.4425 18.4556C52.0443 25.6988 66.8342 20.1807 63.5505 15.0118Z" fill="#6CFFCF"/>
<path d="M61.2165 8.92615L61.5631 8.56978L62.2563 9.28252L61.9097 9.63889L61.2165 8.92615Z" fill="#A4AFC1"/>
<path d="M59.1368 9.27881L59.8307 8.56678L60.1777 8.9228L59.4837 9.63482L59.1368 9.27881Z" fill="#A4AFC1"/>
<path d="M61.1298 7.23004L61.823 6.5173L62.1696 6.87367L61.4764 7.58641L61.1298 7.23004Z" fill="#A4AFC1"/>
<path d="M48.8925 8.02922C48.4871 8.02922 48.1572 7.69004 48.1572 7.27325C48.1572 6.85645 48.4871 6.51727 48.8925 6.51727C49.2979 6.51727 49.6277 6.85645 49.6277 7.27325C49.6277 7.69004 49.2979 8.02922 48.8925 8.02922ZM48.8925 7.02126C48.7572 7.02126 48.6474 7.13415 48.6474 7.27325C48.6474 7.41235 48.7572 7.52524 48.8925 7.52524C49.0278 7.52524 49.1376 7.41235 49.1376 7.27325C49.1376 7.13415 49.0278 7.02126 48.8925 7.02126Z" fill="#A4AFC1"/>
<g clip-path="url(#clip0)">
<path d="M56.5946 19.6985H58.7557V19.5725H56.5946V19.6985Z" fill="#222222"/>
<path d="M56.5946 20.7261H58.7557V20.8522H56.5946V20.7261Z" fill="#222222"/>
<path d="M55.7839 19.9508H59.5657V19.8247H55.7839V19.9508Z" fill="#222222"/>
<path d="M55.7839 20.4739H59.5657V20.6H55.7839V20.4739Z" fill="#222222"/>
<path d="M51.6242 20.8521H52.0024V21.2303H51.6242V20.8521Z" fill="#222222"/>
<path d="M50.4898 21.2304H50.8679V21.6086H50.4898V21.2304Z" fill="#222222"/>
<path d="M51.6441 19.7882C52.6314 18.0687 53.2508 16.1628 53.4632 14.1914L55.2217 15.9394C55.2569 15.9745 55.3044 15.9942 55.3541 15.9944C55.3643 15.9945 55.3746 15.9937 55.3847 15.992C55.4446 15.9822 55.4962 15.9442 55.5233 15.8899C55.8797 15.1785 55.7401 14.3186 55.1769 13.7565L55.0222 13.6018H56.3522C56.4566 13.6019 56.5414 13.5173 56.5414 13.4129C56.5415 13.3924 56.5381 13.3721 56.5317 13.3528C56.2806 12.5976 55.5739 12.0884 54.7781 12.0891H54.5323L55.4766 11.1394C55.5503 11.0654 55.55 10.9457 55.476 10.872C55.4616 10.8577 55.4451 10.8458 55.4271 10.8368C54.7153 10.48 53.855 10.6195 53.2925 11.1831L53.1119 11.3636C53.053 11.4229 52.9983 11.4861 52.948 11.5527C52.8983 11.4861 52.844 11.4229 52.7855 11.3636L52.605 11.1831C52.0429 10.6199 51.1831 10.4804 50.4718 10.8368C50.3783 10.8835 50.3404 10.9971 50.3871 11.0905C50.3961 11.1085 50.408 11.125 50.4223 11.1394L51.3676 12.0891H51.1194C50.3235 12.0884 49.6168 12.5976 49.3658 13.3528C49.3327 13.4518 49.3861 13.5589 49.4852 13.592C49.5045 13.5985 49.5248 13.6018 49.5452 13.6018H50.8739L50.7193 13.7565C50.156 14.3186 50.0164 15.1785 50.3728 15.8899C50.4 15.9442 50.4515 15.9822 50.5114 15.992C50.5216 15.9937 50.5318 15.9945 50.5421 15.9944C50.5921 15.9944 50.64 15.9747 50.6754 15.9394L52.3129 14.3116C52.1101 16.1235 51.4277 17.8485 50.336 19.3087C50.0818 19.242 49.8241 19.1894 49.5642 19.1514L49.446 19.1395L49.4082 19.516L49.5184 19.5267C49.7075 19.5538 49.8954 19.592 50.0823 19.6353C50.0444 19.6827 50.0066 19.7309 49.9675 19.7777L50.2575 20.0203C51.7106 18.2926 52.5768 16.1478 52.7311 13.8956L52.9488 13.6794L53.1117 13.8414C52.9129 16.25 52.0862 18.5644 50.714 20.5538L51.0237 20.7706C51.1723 20.5583 51.3141 20.3381 51.4516 20.1137C52.3361 20.5368 53.117 21.1486 53.7395 21.9062L54.032 21.6666C53.6639 21.2191 53.0275 20.627 52.5616 20.2825H60.7012V20.0959H52.2161C52.0307 19.9839 51.8394 19.8826 51.6441 19.7882ZM55.2846 15.4684L53.2868 13.4821C53.7979 13.3296 54.3513 13.468 54.7303 13.8432L54.9109 14.0239C55.2892 14.4015 55.4323 14.9547 55.2846 15.4684ZM56.0637 13.2237H54.4981C54.1335 13.0501 53.7221 13.001 53.3269 13.0839C53.602 12.697 54.0474 12.4673 54.5221 12.4673H54.7774C55.3119 12.4665 55.8046 12.7562 56.0637 13.2237ZM53.3787 11.631L53.5593 11.4504C53.9372 11.0721 54.4907 10.9289 55.0046 11.0766L53.8837 12.2041C53.52 12.338 53.2077 12.5831 52.9911 12.9047C52.9031 12.4421 53.0482 11.9658 53.3793 11.631H53.3787ZM52.3371 11.4504L52.5176 11.631C52.6018 11.717 52.6749 11.8132 52.7351 11.9174C52.6494 12.1166 52.6005 12.3295 52.5906 12.546C52.4209 12.3977 52.2254 12.2819 52.0139 12.2041L50.8928 11.0766C51.4066 10.929 51.9599 11.0722 52.3376 11.4504H52.3371ZM51.1188 12.4673H51.3741C51.8492 12.4669 52.2951 12.6966 52.5706 13.0837C52.1756 13.0011 51.7643 13.0502 51.4 13.2237H49.8337C50.0928 12.7565 50.5851 12.4668 51.1194 12.4673H51.1188ZM50.6128 15.4684C50.4652 14.9547 50.6084 14.4015 50.9867 14.0239L51.1672 13.8432C51.4392 13.5719 51.8081 13.42 52.1924 13.4212C52.3342 13.4213 52.4753 13.4415 52.6114 13.4814L50.6128 15.4684Z" fill="#222222"/>
</g>
<ellipse cx="50.5101" cy="7.01076" rx="2.30778" ry="2.37282" fill="#00B87C"/>
<path d="M47.6581 5.55581C47.6407 5.55147 47.6234 5.56335 47.6194 5.58233C47.6155 5.60131 47.6264 5.62021 47.6437 5.62454L47.6581 5.55581ZM48.1217 6.21345C48.1395 6.21345 48.1539 6.19767 48.1539 6.1782C48.1539 6.15873 48.1395 6.14295 48.1217 6.14295L48.1217 6.21345ZM47.6509 5.59017C47.6437 5.62454 47.6437 5.62454 47.6437 5.62454C47.6437 5.62454 47.6437 5.62453 47.6437 5.62453C47.6437 5.62453 47.6437 5.62453 47.6437 5.62453C47.6437 5.62453 47.6437 5.62454 47.6438 5.62455C47.6438 5.62457 47.644 5.6246 47.6441 5.62465C47.6445 5.62475 47.6451 5.62491 47.6459 5.62513C47.6476 5.62558 47.6501 5.62628 47.6533 5.62724C47.6597 5.62917 47.669 5.63215 47.6801 5.63625C47.7025 5.6445 47.7316 5.65706 47.7597 5.67444C47.8182 5.71071 47.8589 5.75887 47.8499 5.82242L47.9136 5.83321C47.9293 5.72284 47.8545 5.65218 47.7915 5.61311C47.7587 5.59282 47.7255 5.57858 47.7008 5.56945C47.6883 5.56486 47.6778 5.56149 47.6704 5.55926C47.6666 5.55814 47.6637 5.5573 47.6616 5.55673C47.6605 5.55645 47.6597 5.55623 47.6591 5.55607C47.6588 5.556 47.6586 5.55594 47.6584 5.55589C47.6583 5.55587 47.6583 5.55585 47.6582 5.55584C47.6582 5.55583 47.6581 5.55582 47.6581 5.55582C47.6581 5.55582 47.6581 5.55581 47.6581 5.55581C47.6581 5.55581 47.6581 5.55581 47.6509 5.59017ZM47.8499 5.82242C47.8355 5.92416 47.8821 6.02198 47.938 6.0915C47.9664 6.12681 47.9985 6.15659 48.0296 6.1778C48.0596 6.19831 48.0925 6.21345 48.1217 6.21345L48.1217 6.14295C48.1105 6.14295 48.0901 6.13604 48.0638 6.11802C48.0384 6.1007 48.011 6.0755 47.9864 6.04496C47.9364 5.98276 47.9034 5.90538 47.9136 5.83321L47.8499 5.82242Z" fill="#6BDDB8"/>
<path d="M53.3215 5.55579C53.3389 5.55146 53.3562 5.56333 53.3602 5.58229C53.3642 5.60126 53.3533 5.62014 53.3359 5.62446L53.3215 5.55579ZM52.8574 6.21284C52.8396 6.21284 52.8252 6.19707 52.8252 6.17762C52.8252 6.15817 52.8396 6.1424 52.8574 6.1424L52.8574 6.21284ZM53.3287 5.59013C53.3359 5.62446 53.3359 5.62446 53.3359 5.62446C53.3359 5.62446 53.3359 5.62446 53.3359 5.62446C53.3359 5.62446 53.3359 5.62446 53.3359 5.62446C53.3359 5.62446 53.3359 5.62446 53.3359 5.62447C53.3358 5.62449 53.3357 5.62452 53.3355 5.62457C53.3351 5.62467 53.3345 5.62483 53.3337 5.62505C53.332 5.6255 53.3295 5.6262 53.3263 5.62716C53.3199 5.62909 53.3106 5.63207 53.2994 5.63616C53.2771 5.6444 53.2479 5.65696 53.2198 5.67432C53.1612 5.71056 53.1205 5.75867 53.1295 5.82216L53.0657 5.83294C53.05 5.72267 53.1248 5.65207 53.188 5.61304C53.2208 5.59277 53.254 5.57854 53.2788 5.56942C53.2913 5.56483 53.3018 5.56147 53.3092 5.55924C53.3129 5.55812 53.3159 5.55729 53.318 5.55672C53.3191 5.55643 53.3199 5.55621 53.3205 5.55606C53.3208 5.55598 53.321 5.55592 53.3212 5.55588C53.3213 5.55585 53.3213 5.55584 53.3214 5.55582C53.3214 5.55581 53.3214 5.55581 53.3215 5.5558C53.3215 5.5558 53.3215 5.5558 53.3215 5.5558C53.3215 5.55579 53.3215 5.55579 53.3287 5.59013ZM53.1295 5.82216C53.1439 5.92381 53.0973 6.02154 53.0413 6.09099C53.0129 6.12627 52.9807 6.15603 52.9496 6.17722C52.9196 6.19771 52.8867 6.21284 52.8574 6.21284L52.8574 6.1424C52.8686 6.1424 52.889 6.13549 52.9154 6.11749C52.9408 6.10019 52.9682 6.07501 52.9928 6.04449C53.0429 5.98236 53.0759 5.90505 53.0657 5.83294L53.1295 5.82216Z" fill="#6BDDB8"/>
<path d="M47.856 5.22077C47.8386 5.21644 47.8213 5.22831 47.8174 5.24727C47.8134 5.26623 47.8243 5.28511 47.8417 5.28944L47.856 5.22077ZM48.3201 5.87781C48.3379 5.87781 48.3524 5.86205 48.3524 5.8426C48.3524 5.82314 48.3379 5.80738 48.3201 5.80738L48.3201 5.87781ZM47.8488 5.25511C47.8417 5.28944 47.8417 5.28944 47.8416 5.28944C47.8416 5.28944 47.8416 5.28944 47.8416 5.28944C47.8416 5.28943 47.8416 5.28943 47.8416 5.28943C47.8416 5.28944 47.8417 5.28944 47.8417 5.28945C47.8418 5.28947 47.8419 5.2895 47.8421 5.28955C47.8425 5.28965 47.8431 5.28981 47.8439 5.29003C47.8455 5.29048 47.848 5.29118 47.8512 5.29214C47.8577 5.29407 47.867 5.29704 47.8781 5.30114C47.9005 5.30938 47.9297 5.32193 47.9577 5.33929C48.0163 5.37554 48.0571 5.42365 48.048 5.48714L48.1119 5.49792C48.1275 5.38765 48.0527 5.31705 47.9896 5.27802C47.9568 5.25774 47.9235 5.24352 47.8988 5.2344C47.8863 5.22981 47.8758 5.22645 47.8683 5.22422C47.8646 5.2231 47.8616 5.22226 47.8595 5.22169C47.8585 5.22141 47.8577 5.22119 47.8571 5.22104C47.8568 5.22096 47.8565 5.2209 47.8564 5.22085C47.8563 5.22083 47.8562 5.22081 47.8562 5.2208C47.8561 5.22079 47.8561 5.22079 47.8561 5.22078C47.8561 5.22078 47.8561 5.22078 47.8561 5.22077C47.856 5.22077 47.856 5.22077 47.8488 5.25511ZM48.048 5.48714C48.0336 5.58879 48.0803 5.68651 48.1362 5.75597C48.1647 5.79125 48.1968 5.82101 48.2279 5.8422C48.258 5.86268 48.2909 5.87781 48.3201 5.87781L48.3201 5.80738C48.3089 5.80738 48.2885 5.80047 48.2621 5.78247C48.2368 5.76517 48.2093 5.73999 48.1847 5.70947C48.1347 5.64734 48.1016 5.57003 48.1119 5.49792L48.048 5.48714Z" fill="#6BDDB8"/>
<path d="M53.1242 5.22077C53.1416 5.21644 53.1589 5.22831 53.1629 5.24727C53.1668 5.26623 53.1559 5.28511 53.1386 5.28944L53.1242 5.22077ZM52.6601 5.87781C52.6423 5.87781 52.6278 5.86205 52.6278 5.8426C52.6278 5.82314 52.6423 5.80738 52.6601 5.80738L52.6601 5.87781ZM53.1314 5.25511C53.1386 5.28944 53.1386 5.28944 53.1386 5.28944C53.1386 5.28944 53.1386 5.28944 53.1386 5.28944C53.1386 5.28943 53.1386 5.28943 53.1386 5.28943C53.1386 5.28944 53.1386 5.28944 53.1385 5.28945C53.1385 5.28947 53.1383 5.2895 53.1381 5.28955C53.1378 5.28965 53.1372 5.28981 53.1363 5.29003C53.1347 5.29048 53.1322 5.29118 53.129 5.29214C53.1225 5.29407 53.1132 5.29704 53.1021 5.30114C53.0797 5.30938 53.0506 5.32193 53.0225 5.33929C52.9639 5.37554 52.9232 5.42365 52.9322 5.48714L52.8684 5.49792C52.8527 5.38765 52.9275 5.31705 52.9906 5.27802C53.0234 5.25774 53.0567 5.24352 53.0815 5.2344C53.0939 5.22981 53.1044 5.22645 53.1119 5.22422C53.1156 5.2231 53.1186 5.22226 53.1207 5.22169C53.1217 5.22141 53.1226 5.22119 53.1231 5.22104C53.1234 5.22096 53.1237 5.2209 53.1239 5.22085C53.1239 5.22083 53.124 5.22081 53.1241 5.2208C53.1241 5.22079 53.1241 5.22079 53.1241 5.22078C53.1242 5.22078 53.1242 5.22078 53.1242 5.22077C53.1242 5.22077 53.1242 5.22077 53.1314 5.25511ZM52.9322 5.48714C52.9466 5.58879 52.9 5.68651 52.844 5.75597C52.8156 5.79125 52.7834 5.82101 52.7523 5.8422C52.7223 5.86268 52.6893 5.87781 52.6601 5.87781L52.6601 5.80738C52.6713 5.80738 52.6917 5.80047 52.7181 5.78247C52.7435 5.76517 52.7709 5.73999 52.7955 5.70947C52.8456 5.64734 52.8786 5.57003 52.8684 5.49792L52.9322 5.48714Z" fill="#6BDDB8"/>
<path d="M48.0537 4.84406C48.0363 4.83973 48.019 4.8516 48.015 4.87056C48.011 4.88952 48.0219 4.90841 48.0393 4.91273L48.0537 4.84406ZM48.5177 5.50111C48.5356 5.50111 48.55 5.48534 48.55 5.46589C48.55 5.44643 48.5356 5.43067 48.5177 5.43067L48.5177 5.50111ZM48.0465 4.8784C48.0393 4.91273 48.0393 4.91273 48.0393 4.91273C48.0393 4.91273 48.0393 4.91273 48.0393 4.91273C48.0393 4.91273 48.0393 4.91273 48.0393 4.91273C48.0393 4.91273 48.0393 4.91273 48.0393 4.91274C48.0394 4.91276 48.0395 4.91279 48.0397 4.91284C48.0401 4.91294 48.0407 4.9131 48.0415 4.91332C48.0432 4.91377 48.0457 4.91447 48.0489 4.91543C48.0553 4.91736 48.0646 4.92033 48.0757 4.92443C48.0981 4.93267 48.1273 4.94523 48.1554 4.96259C48.214 4.99883 48.2547 5.04694 48.2457 5.11043L48.3095 5.12121C48.3252 5.01094 48.2503 4.94034 48.1872 4.90131C48.1544 4.88104 48.1212 4.86681 48.0964 4.85769C48.0839 4.8531 48.0734 4.84974 48.066 4.84751C48.0622 4.84639 48.0593 4.84555 48.0572 4.84498C48.0561 4.8447 48.0553 4.84448 48.0547 4.84433C48.0544 4.84425 48.0542 4.84419 48.054 4.84415C48.0539 4.84412 48.0538 4.8441 48.0538 4.84409C48.0538 4.84408 48.0537 4.84408 48.0537 4.84407C48.0537 4.84407 48.0537 4.84407 48.0537 4.84407C48.0537 4.84406 48.0537 4.84406 48.0465 4.8784ZM48.2457 5.11043C48.2312 5.21208 48.2779 5.3098 48.3339 5.37926C48.3623 5.41454 48.3945 5.4443 48.4255 5.46549C48.4556 5.48598 48.4885 5.50111 48.5177 5.50111L48.5177 5.43067C48.5066 5.43067 48.4862 5.42376 48.4598 5.40576C48.4344 5.38846 48.407 5.36328 48.3824 5.33276C48.3323 5.27063 48.2993 5.19332 48.3095 5.12121L48.2457 5.11043Z" fill="#6BDDB8"/>
<path d="M52.9262 4.84406C52.9436 4.83973 52.9609 4.8516 52.9649 4.87056C52.9688 4.88952 52.958 4.90841 52.9406 4.91273L52.9262 4.84406ZM52.4621 5.50111C52.4443 5.50111 52.4298 5.48534 52.4298 5.46589C52.4298 5.44643 52.4443 5.43067 52.4621 5.43067L52.4621 5.50111ZM52.9334 4.8784C52.9406 4.91273 52.9406 4.91273 52.9406 4.91273C52.9406 4.91273 52.9406 4.91273 52.9406 4.91273C52.9406 4.91273 52.9406 4.91273 52.9406 4.91273C52.9406 4.91273 52.9406 4.91273 52.9405 4.91274C52.9405 4.91276 52.9403 4.91279 52.9401 4.91284C52.9398 4.91294 52.9392 4.9131 52.9383 4.91332C52.9367 4.91377 52.9342 4.91447 52.931 4.91543C52.9245 4.91736 52.9153 4.92033 52.9041 4.92443C52.8817 4.93267 52.8526 4.94522 52.8245 4.96259C52.7659 4.99883 52.7252 5.04694 52.7342 5.11043L52.6704 5.12121C52.6547 5.01094 52.7295 4.94034 52.7926 4.90131C52.8254 4.88104 52.8587 4.86681 52.8835 4.85769C52.8959 4.8531 52.9064 4.84974 52.9139 4.84751C52.9176 4.84639 52.9206 4.84555 52.9227 4.84498C52.9237 4.8447 52.9246 4.84448 52.9251 4.84433C52.9254 4.84425 52.9257 4.84419 52.9259 4.84415C52.9259 4.84412 52.926 4.8441 52.9261 4.84409C52.9261 4.84408 52.9261 4.84408 52.9261 4.84407C52.9262 4.84407 52.9262 4.84407 52.9262 4.84407C52.9262 4.84406 52.9262 4.84406 52.9334 4.8784ZM52.7342 5.11043C52.7486 5.21208 52.702 5.3098 52.646 5.37926C52.6176 5.41454 52.5854 5.4443 52.5543 5.46549C52.5243 5.48598 52.4913 5.50111 52.4621 5.50111L52.4621 5.43067C52.4733 5.43067 52.4937 5.42376 52.5201 5.40576C52.5455 5.38846 52.5729 5.36328 52.5975 5.33276C52.6476 5.27063 52.6806 5.19332 52.6704 5.12121L52.7342 5.11043Z" fill="#6BDDB8"/>
<path d="M48.2731 4.54596C48.2557 4.54164 48.2384 4.5535 48.2344 4.57246C48.2305 4.59143 48.2413 4.61031 48.2587 4.61464L48.2731 4.54596ZM48.7372 5.20301C48.755 5.20301 48.7695 5.18724 48.7695 5.16779C48.7695 5.14834 48.755 5.13257 48.7372 5.13257L48.7372 5.20301ZM48.2659 4.5803C48.2587 4.61464 48.2587 4.61464 48.2587 4.61463C48.2587 4.61463 48.2587 4.61463 48.2587 4.61463C48.2587 4.61463 48.2587 4.61463 48.2587 4.61463C48.2587 4.61463 48.2587 4.61464 48.2587 4.61465C48.2588 4.61466 48.259 4.6147 48.2591 4.61475C48.2595 4.61484 48.2601 4.615 48.2609 4.61523C48.2626 4.61568 48.2651 4.61637 48.2683 4.61734C48.2747 4.61927 48.284 4.62224 48.2952 4.62633C48.3176 4.63458 48.3467 4.64713 48.3748 4.66449C48.4334 4.70073 48.4741 4.74884 48.4651 4.81233L48.5289 4.82311C48.5446 4.71284 48.4698 4.64225 48.4066 4.60322C48.3739 4.58294 48.3406 4.56872 48.3158 4.55959C48.3033 4.555 48.2928 4.55165 48.2854 4.54941C48.2817 4.5483 48.2787 4.54746 48.2766 4.54689C48.2755 4.5466 48.2747 4.54638 48.2741 4.54623C48.2738 4.54615 48.2736 4.54609 48.2734 4.54605C48.2733 4.54603 48.2733 4.54601 48.2732 4.54599C48.2732 4.54599 48.2732 4.54598 48.2731 4.54598C48.2731 4.54597 48.2731 4.54597 48.2731 4.54597C48.2731 4.54597 48.2731 4.54596 48.2659 4.5803ZM48.4651 4.81233C48.4507 4.91398 48.4973 5.01171 48.5533 5.08117C48.5817 5.11645 48.6139 5.1462 48.645 5.16739C48.675 5.18788 48.7079 5.20301 48.7372 5.20301L48.7372 5.13257C48.726 5.13257 48.7056 5.12566 48.6792 5.10766C48.6538 5.09036 48.6264 5.06518 48.6018 5.03467C48.5517 4.97253 48.5187 4.89522 48.5289 4.82311L48.4651 4.81233Z" fill="#6BDDB8"/>
<path d="M52.7071 4.54596C52.7245 4.54164 52.7418 4.5535 52.7458 4.57246C52.7498 4.59143 52.7389 4.61031 52.7215 4.61464L52.7071 4.54596ZM52.2431 5.20301C52.2252 5.20301 52.2108 5.18724 52.2108 5.16779C52.2108 5.14834 52.2252 5.13257 52.2431 5.13257L52.2431 5.20301ZM52.7143 4.5803C52.7215 4.61464 52.7215 4.61464 52.7215 4.61463C52.7215 4.61463 52.7215 4.61463 52.7215 4.61463C52.7215 4.61463 52.7215 4.61463 52.7215 4.61463C52.7215 4.61463 52.7215 4.61464 52.7215 4.61465C52.7214 4.61466 52.7213 4.6147 52.7211 4.61475C52.7207 4.61484 52.7201 4.615 52.7193 4.61523C52.7176 4.61568 52.7151 4.61637 52.7119 4.61734C52.7055 4.61927 52.6962 4.62224 52.6851 4.62633C52.6627 4.63458 52.6335 4.64713 52.6054 4.66449C52.5468 4.70073 52.5061 4.74884 52.5151 4.81233L52.4513 4.82311C52.4356 4.71284 52.5105 4.64225 52.5736 4.60322C52.6064 4.58294 52.6396 4.56872 52.6644 4.55959C52.6769 4.555 52.6874 4.55165 52.6948 4.54941C52.6986 4.5483 52.7015 4.54746 52.7036 4.54689C52.7047 4.5466 52.7055 4.54638 52.7061 4.54623C52.7064 4.54615 52.7066 4.54609 52.7068 4.54605C52.7069 4.54603 52.707 4.54601 52.707 4.54599C52.707 4.54599 52.7071 4.54598 52.7071 4.54598C52.7071 4.54597 52.7071 4.54597 52.7071 4.54597C52.7071 4.54597 52.7071 4.54596 52.7143 4.5803ZM52.5151 4.81233C52.5296 4.91398 52.4829 5.01171 52.4269 5.08117C52.3985 5.11645 52.3663 5.1462 52.3353 5.16739C52.3052 5.18788 52.2723 5.20301 52.2431 5.20301L52.2431 5.13257C52.2542 5.13257 52.2746 5.12566 52.301 5.10766C52.3264 5.09036 52.3538 5.06518 52.3784 5.03467C52.4285 4.97253 52.4615 4.89522 52.4513 4.82311L52.5151 4.81233Z" fill="#6BDDB8"/>
<path d="M48.5937 4.33039C48.5763 4.32606 48.559 4.33792 48.555 4.35689C48.5511 4.37585 48.5619 4.39473 48.5793 4.39906L48.5937 4.33039ZM49.0578 4.98743C49.0756 4.98743 49.0901 4.97167 49.0901 4.95221C49.0901 4.93276 49.0756 4.91699 49.0578 4.91699L49.0578 4.98743ZM48.5865 4.36472C48.5793 4.39906 48.5793 4.39906 48.5793 4.39906C48.5793 4.39906 48.5793 4.39906 48.5793 4.39905C48.5793 4.39905 48.5793 4.39905 48.5793 4.39905C48.5793 4.39906 48.5793 4.39906 48.5794 4.39907C48.5794 4.39909 48.5796 4.39912 48.5798 4.39917C48.5801 4.39927 48.5807 4.39943 48.5816 4.39965C48.5832 4.4001 48.5857 4.4008 48.5889 4.40176C48.5954 4.40369 48.6046 4.40666 48.6158 4.41076C48.6382 4.419 48.6673 4.43155 48.6954 4.44891C48.754 4.48516 48.7947 4.53327 48.7857 4.59676L48.8495 4.60754C48.8652 4.49727 48.7904 4.42667 48.7273 4.38764C48.6945 4.36736 48.6612 4.35314 48.6364 4.34402C48.624 4.33943 48.6135 4.33607 48.606 4.33384C48.6023 4.33272 48.5993 4.33188 48.5972 4.33131C48.5962 4.33103 48.5953 4.33081 48.5947 4.33065C48.5945 4.33058 48.5942 4.33052 48.594 4.33047C48.594 4.33045 48.5939 4.33043 48.5938 4.33042C48.5938 4.33041 48.5938 4.33041 48.5938 4.3304C48.5937 4.3304 48.5937 4.33039 48.5937 4.33039C48.5937 4.33039 48.5937 4.33039 48.5865 4.36472ZM48.7857 4.59676C48.7713 4.69841 48.8179 4.79613 48.8739 4.86559C48.9023 4.90087 48.9345 4.93063 48.9656 4.95182C48.9956 4.9723 49.0285 4.98743 49.0578 4.98743L49.0578 4.91699C49.0466 4.91699 49.0262 4.91009 48.9998 4.89209C48.9744 4.87479 48.947 4.84961 48.9224 4.81909C48.8723 4.75696 48.8393 4.67965 48.8495 4.60754L48.7857 4.59676Z" fill="#6BDDB8"/>
<path d="M52.3862 4.33039C52.4036 4.32606 52.4209 4.33792 52.4249 4.35689C52.4289 4.37585 52.418 4.39473 52.4006 4.39906L52.3862 4.33039ZM51.9221 4.98743C51.9043 4.98743 51.8898 4.97167 51.8898 4.95221C51.8898 4.93276 51.9043 4.91699 51.9221 4.91699L51.9221 4.98743ZM52.3934 4.36472C52.4006 4.39906 52.4006 4.39906 52.4006 4.39906C52.4006 4.39906 52.4006 4.39906 52.4006 4.39905C52.4006 4.39905 52.4006 4.39905 52.4006 4.39905C52.4006 4.39906 52.4006 4.39906 52.4006 4.39907C52.4005 4.39909 52.4004 4.39912 52.4002 4.39917C52.3998 4.39927 52.3992 4.39943 52.3984 4.39965C52.3967 4.4001 52.3942 4.4008 52.391 4.40176C52.3846 4.40369 52.3753 4.40666 52.3641 4.41076C52.3417 4.419 52.3126 4.43155 52.2845 4.44891C52.2259 4.48516 52.1852 4.53327 52.1942 4.59676L52.1304 4.60754C52.1147 4.49727 52.1895 4.42667 52.2527 4.38764C52.2855 4.36736 52.3187 4.35314 52.3435 4.34402C52.356 4.33943 52.3665 4.33607 52.3739 4.33384C52.3776 4.33272 52.3806 4.33188 52.3827 4.33131C52.3838 4.33103 52.3846 4.33081 52.3852 4.33065C52.3855 4.33058 52.3857 4.33052 52.3859 4.33047C52.386 4.33045 52.386 4.33043 52.3861 4.33042C52.3861 4.33041 52.3861 4.33041 52.3862 4.3304C52.3862 4.3304 52.3862 4.33039 52.3862 4.33039C52.3862 4.33039 52.3862 4.33039 52.3934 4.36472ZM52.1942 4.59676C52.2086 4.69841 52.162 4.79613 52.106 4.86559C52.0776 4.90087 52.0454 4.93063 52.0143 4.95182C51.9843 4.9723 51.9514 4.98743 51.9221 4.98743L51.9221 4.91699C51.9333 4.91699 51.9537 4.91009 51.9801 4.89209C52.0055 4.87479 52.0329 4.84961 52.0575 4.81909C52.1076 4.75696 52.1406 4.67965 52.1304 4.60754L52.1942 4.59676Z" fill="#6BDDB8"/>
<path d="M48.9631 4.10291C48.9457 4.09858 48.9284 4.11045 48.9244 4.12941C48.9205 4.14837 48.9313 4.16726 48.9487 4.17158L48.9631 4.10291ZM49.4272 4.75996C49.445 4.75996 49.4595 4.74419 49.4595 4.72474C49.4595 4.70528 49.445 4.68952 49.4272 4.68952L49.4272 4.75996ZM48.9559 4.13725C48.9487 4.17158 48.9487 4.17158 48.9487 4.17158C48.9487 4.17158 48.9487 4.17158 48.9487 4.17158C48.9487 4.17158 48.9487 4.17158 48.9487 4.17158C48.9487 4.17158 48.9487 4.17158 48.9488 4.17159C48.9488 4.17161 48.949 4.17164 48.9491 4.17169C48.9495 4.17179 48.9501 4.17195 48.9509 4.17217C48.9526 4.17262 48.9551 4.17332 48.9583 4.17428C48.9647 4.17621 48.974 4.17918 48.9852 4.18328C49.0076 4.19152 49.0367 4.20408 49.0648 4.22144C49.1234 4.25768 49.1641 4.30579 49.1551 4.36928L49.2189 4.38006C49.2346 4.26979 49.1598 4.19919 49.0966 4.16016C49.0639 4.13989 49.0306 4.12566 49.0058 4.11654C48.9933 4.11195 48.9829 4.10859 48.9754 4.10636C48.9717 4.10524 48.9687 4.1044 48.9666 4.10383C48.9656 4.10355 48.9647 4.10333 48.9641 4.10318C48.9638 4.1031 48.9636 4.10304 48.9634 4.103C48.9633 4.10297 48.9633 4.10295 48.9632 4.10294C48.9632 4.10293 48.9632 4.10293 48.9631 4.10292C48.9631 4.10292 48.9631 4.10292 48.9631 4.10292C48.9631 4.10291 48.9631 4.10291 48.9559 4.13725ZM49.1551 4.36928C49.1407 4.47093 49.1873 4.56865 49.2433 4.63811C49.2717 4.67339 49.3039 4.70315 49.335 4.72434C49.365 4.74483 49.3979 4.75996 49.4272 4.75996L49.4272 4.68952C49.416 4.68952 49.3956 4.68261 49.3692 4.66461C49.3438 4.64731 49.3164 4.62213 49.2918 4.59161C49.2417 4.52948 49.2087 4.45217 49.2189 4.38006L49.1551 4.36928Z" fill="#6BDDB8"/>
<path d="M52.0168 4.10291C52.0342 4.09858 52.0515 4.11045 52.0555 4.12941C52.0595 4.14837 52.0486 4.16726 52.0312 4.17158L52.0168 4.10291ZM51.5528 4.75996C51.5349 4.75996 51.5205 4.74419 51.5205 4.72474C51.5205 4.70528 51.5349 4.68952 51.5528 4.68952L51.5528 4.75996ZM52.024 4.13725C52.0312 4.17158 52.0312 4.17158 52.0312 4.17158C52.0312 4.17158 52.0312 4.17158 52.0312 4.17158C52.0312 4.17158 52.0312 4.17158 52.0312 4.17158C52.0312 4.17158 52.0312 4.17158 52.0312 4.17159C52.0311 4.17161 52.031 4.17164 52.0308 4.17169C52.0304 4.17179 52.0298 4.17195 52.029 4.17217C52.0273 4.17262 52.0248 4.17332 52.0216 4.17428C52.0152 4.17621 52.0059 4.17918 51.9948 4.18328C51.9724 4.19152 51.9432 4.20408 51.9151 4.22144C51.8565 4.25768 51.8158 4.30579 51.8248 4.36928L51.761 4.38006C51.7453 4.26979 51.8202 4.19919 51.8833 4.16016C51.9161 4.13989 51.9493 4.12566 51.9741 4.11654C51.9866 4.11195 51.9971 4.10859 52.0045 4.10636C52.0083 4.10524 52.0112 4.1044 52.0133 4.10383C52.0144 4.10355 52.0152 4.10333 52.0158 4.10318C52.0161 4.1031 52.0163 4.10304 52.0165 4.103C52.0166 4.10297 52.0167 4.10295 52.0167 4.10294C52.0167 4.10293 52.0168 4.10293 52.0168 4.10292C52.0168 4.10292 52.0168 4.10292 52.0168 4.10292C52.0168 4.10291 52.0168 4.10291 52.024 4.13725ZM51.8248 4.36928C51.8393 4.47093 51.7926 4.56865 51.7366 4.63811C51.7082 4.67339 51.676 4.70315 51.645 4.72434C51.6149 4.74483 51.582 4.75996 51.5528 4.75996L51.5528 4.68952C51.5639 4.68952 51.5843 4.68261 51.6107 4.66461C51.6361 4.64731 51.6635 4.62213 51.6881 4.59161C51.7382 4.52948 51.7712 4.45217 51.761 4.38006L51.8248 4.36928Z" fill="#6BDDB8"/>
<path d="M49.4035 3.95826C49.3861 3.95393 49.3688 3.96579 49.3649 3.98476C49.3609 4.00372 49.3718 4.0226 49.3891 4.02693L49.4035 3.95826ZM49.8676 4.6153C49.8854 4.6153 49.8999 4.59953 49.8999 4.58008C49.8999 4.56063 49.8854 4.54486 49.8676 4.54486L49.8676 4.6153ZM49.3963 3.99259C49.3891 4.02693 49.3891 4.02693 49.3891 4.02693C49.3891 4.02693 49.3891 4.02692 49.3891 4.02692C49.3891 4.02692 49.3891 4.02692 49.3891 4.02692C49.3891 4.02692 49.3891 4.02693 49.3892 4.02694C49.3893 4.02696 49.3894 4.02699 49.3896 4.02704C49.3899 4.02714 49.3906 4.0273 49.3914 4.02752C49.393 4.02797 49.3955 4.02867 49.3987 4.02963C49.4052 4.03156 49.4145 4.03453 49.4256 4.03863C49.448 4.04687 49.4771 4.05942 49.5052 4.07678C49.5638 4.11302 49.6045 4.16114 49.5955 4.22463L49.6594 4.23541C49.675 4.12514 49.6002 4.05454 49.5371 4.01551C49.5043 3.99523 49.471 3.98101 49.4462 3.97188C49.4338 3.9673 49.4233 3.96394 49.4158 3.96171C49.4121 3.96059 49.4091 3.95975 49.407 3.95918C49.406 3.9589 49.4052 3.95868 49.4046 3.95852C49.4043 3.95845 49.404 3.95839 49.4039 3.95834C49.4038 3.95832 49.4037 3.9583 49.4036 3.95829C49.4036 3.95828 49.4036 3.95827 49.4036 3.95827C49.4036 3.95827 49.4035 3.95826 49.4035 3.95826C49.4035 3.95826 49.4035 3.95826 49.3963 3.99259ZM49.5955 4.22463C49.5811 4.32628 49.6277 4.424 49.6837 4.49346C49.7121 4.52874 49.7443 4.5585 49.7754 4.57968C49.8054 4.60017 49.8384 4.6153 49.8676 4.6153L49.8676 4.54486C49.8564 4.54486 49.836 4.53795 49.8096 4.51995C49.7843 4.50265 49.7568 4.47748 49.7322 4.44696C49.6822 4.38482 49.6491 4.30751 49.6594 4.23541L49.5955 4.22463Z" fill="#6BDDB8"/>
<path d="M51.5764 3.95826C51.5938 3.95393 51.6111 3.96579 51.6151 3.98476C51.619 4.00372 51.6082 4.0226 51.5908 4.02693L51.5764 3.95826ZM51.1123 4.6153C51.0945 4.6153 51.08 4.59953 51.08 4.58008C51.08 4.56063 51.0945 4.54486 51.1123 4.54486L51.1123 4.6153ZM51.5836 3.99259C51.5908 4.02693 51.5908 4.02693 51.5908 4.02693C51.5908 4.02693 51.5908 4.02692 51.5908 4.02692C51.5908 4.02692 51.5908 4.02692 51.5908 4.02692C51.5908 4.02692 51.5908 4.02693 51.5907 4.02694C51.5907 4.02696 51.5905 4.02699 51.5903 4.02704C51.59 4.02714 51.5894 4.0273 51.5885 4.02752C51.5869 4.02797 51.5844 4.02867 51.5812 4.02963C51.5748 4.03156 51.5655 4.03453 51.5543 4.03863C51.5319 4.04687 51.5028 4.05942 51.4747 4.07678C51.4161 4.11302 51.3754 4.16114 51.3844 4.22463L51.3206 4.23541C51.3049 4.12514 51.3797 4.05454 51.4428 4.01551C51.4756 3.99523 51.5089 3.98101 51.5337 3.97188C51.5461 3.9673 51.5566 3.96394 51.5641 3.96171C51.5678 3.96059 51.5708 3.95975 51.5729 3.95918C51.5739 3.9589 51.5748 3.95868 51.5754 3.95852C51.5757 3.95845 51.5759 3.95839 51.5761 3.95834C51.5761 3.95832 51.5762 3.9583 51.5763 3.95829C51.5763 3.95828 51.5763 3.95827 51.5764 3.95827C51.5764 3.95827 51.5764 3.95826 51.5764 3.95826C51.5764 3.95826 51.5764 3.95826 51.5836 3.99259ZM51.3844 4.22463C51.3988 4.32628 51.3522 4.424 51.2962 4.49346C51.2678 4.52874 51.2356 4.5585 51.2045 4.57969C51.1745 4.60017 51.1416 4.6153 51.1123 4.6153L51.1123 4.54486C51.1235 4.54486 51.1439 4.53795 51.1703 4.51995C51.1957 4.50265 51.2231 4.47748 51.2477 4.44696C51.2978 4.38482 51.3308 4.30751 51.3206 4.23541L51.3844 4.22463Z" fill="#6BDDB8"/>
<path d="M49.9083 3.83863C49.891 3.8343 49.8736 3.84616 49.8697 3.86513C49.8657 3.88409 49.8766 3.90297 49.894 3.9073L49.9083 3.83863ZM50.3724 4.49567C50.3902 4.49567 50.4047 4.47991 50.4047 4.46045C50.4047 4.441 50.3902 4.42523 50.3724 4.42523L50.3724 4.49567ZM49.9012 3.87296C49.894 3.9073 49.894 3.9073 49.894 3.9073C49.894 3.9073 49.8939 3.9073 49.8939 3.90729C49.8939 3.90729 49.8939 3.90729 49.8939 3.90729C49.8939 3.9073 49.894 3.9073 49.894 3.90731C49.8941 3.90733 49.8942 3.90736 49.8944 3.90741C49.8948 3.90751 49.8954 3.90767 49.8962 3.90789C49.8978 3.90834 49.9003 3.90904 49.9035 3.91C49.91 3.91193 49.9193 3.9149 49.9304 3.919C49.9528 3.92724 49.982 3.93979 50.01 3.95715C50.0686 3.99339 50.1094 4.04151 50.1004 4.105L50.1642 4.11578C50.1798 4.00551 50.105 3.93491 50.0419 3.89588C50.0091 3.8756 49.9759 3.86138 49.9511 3.85226C49.9386 3.84767 49.9281 3.84431 49.9206 3.84208C49.9169 3.84096 49.9139 3.84012 49.9118 3.83955C49.9108 3.83927 49.91 3.83905 49.9094 3.83889C49.9091 3.83882 49.9089 3.83876 49.9087 3.83871C49.9086 3.83869 49.9085 3.83867 49.9085 3.83866C49.9084 3.83865 49.9084 3.83865 49.9084 3.83864C49.9084 3.83864 49.9084 3.83863 49.9084 3.83863C49.9084 3.83863 49.9083 3.83863 49.9012 3.87296ZM50.1004 4.105C50.0859 4.20665 50.1326 4.30437 50.1885 4.37383C50.217 4.40911 50.2491 4.43887 50.2802 4.46006C50.3103 4.48054 50.3432 4.49567 50.3724 4.49567L50.3724 4.42523C50.3612 4.42523 50.3409 4.41833 50.3145 4.40033C50.2891 4.38303 50.2616 4.35785 50.237 4.32733C50.187 4.2652 50.1539 4.18789 50.1642 4.11578L50.1004 4.105Z" fill="#6BDDB8"/>
<path d="M51.0715 3.83863C51.0888 3.8343 51.1062 3.84616 51.1101 3.86513C51.1141 3.88409 51.1032 3.90297 51.0858 3.9073L51.0715 3.83863ZM50.6074 4.49567C50.5895 4.49567 50.5751 4.47991 50.5751 4.46045C50.5751 4.441 50.5895 4.42523 50.6074 4.42523L50.6074 4.49567ZM51.0786 3.87296C51.0858 3.9073 51.0858 3.9073 51.0858 3.9073C51.0858 3.9073 51.0858 3.9073 51.0859 3.90729C51.0859 3.90729 51.0859 3.90729 51.0859 3.90729C51.0858 3.9073 51.0858 3.9073 51.0858 3.90731C51.0857 3.90733 51.0856 3.90736 51.0854 3.90741C51.085 3.90751 51.0844 3.90767 51.0836 3.90789C51.082 3.90834 51.0795 3.90904 51.0762 3.91C51.0698 3.91193 51.0605 3.9149 51.0494 3.919C51.027 3.92724 50.9978 3.93979 50.9698 3.95715C50.9112 3.99339 50.8704 4.04151 50.8794 4.105L50.8156 4.11578C50.8 4.00551 50.8748 3.93491 50.9379 3.89588C50.9707 3.8756 51.0039 3.86138 51.0287 3.85226C51.0412 3.84767 51.0517 3.84431 51.0591 3.84208C51.0629 3.84096 51.0659 3.84012 51.0679 3.83955C51.069 3.83927 51.0698 3.83905 51.0704 3.83889C51.0707 3.83882 51.0709 3.83876 51.0711 3.83871C51.0712 3.83869 51.0713 3.83867 51.0713 3.83866C51.0714 3.83865 51.0714 3.83865 51.0714 3.83864C51.0714 3.83864 51.0714 3.83863 51.0714 3.83863C51.0714 3.83863 51.0715 3.83863 51.0786 3.87296ZM50.8794 4.105C50.8939 4.20665 50.8472 4.30437 50.7913 4.37383C50.7628 4.40911 50.7307 4.43887 50.6996 4.46006C50.6695 4.48054 50.6366 4.49567 50.6074 4.49567L50.6074 4.42523C50.6186 4.42523 50.6389 4.41833 50.6653 4.40033C50.6907 4.38303 50.7182 4.35785 50.7428 4.32733C50.7928 4.2652 50.8259 4.18789 50.8156 4.11578L50.8794 4.105Z" fill="#6BDDB8"/>
<path d="M47.6581 8.54795C47.6407 8.55229 47.6234 8.54041 47.6194 8.52143C47.6155 8.50245 47.6264 8.48355 47.6437 8.47922L47.6581 8.54795ZM48.1217 7.89031C48.1395 7.89031 48.1539 7.90609 48.1539 7.92556C48.1539 7.94503 48.1395 7.96081 48.1217 7.96081L48.1217 7.89031ZM47.6509 8.51359C47.6437 8.47922 47.6437 8.47922 47.6437 8.47922C47.6437 8.47922 47.6437 8.47923 47.6437 8.47923C47.6437 8.47923 47.6437 8.47923 47.6437 8.47923C47.6437 8.47923 47.6437 8.47922 47.6438 8.47921C47.6438 8.47919 47.644 8.47916 47.6441 8.47911C47.6445 8.47901 47.6451 8.47885 47.6459 8.47863C47.6476 8.47818 47.6501 8.47748 47.6533 8.47652C47.6597 8.47459 47.669 8.47161 47.6801 8.46751C47.7025 8.45926 47.7316 8.4467 47.7597 8.42932C47.8182 8.39305 47.8589 8.34489 47.8499 8.28134L47.9137 8.27055C47.9293 8.38092 47.8545 8.45158 47.7915 8.49065C47.7587 8.51094 47.7255 8.52518 47.7008 8.53431C47.6883 8.5389 47.6778 8.54227 47.6704 8.5445C47.6666 8.54562 47.6637 8.54646 47.6616 8.54703C47.6605 8.54731 47.6597 8.54753 47.6591 8.54769C47.6588 8.54776 47.6586 8.54782 47.6584 8.54787C47.6583 8.54789 47.6583 8.54791 47.6582 8.54792C47.6582 8.54793 47.6581 8.54794 47.6581 8.54794C47.6581 8.54794 47.6581 8.54795 47.6581 8.54795C47.6581 8.54795 47.6581 8.54795 47.6509 8.51359ZM47.8499 8.28134C47.8355 8.1796 47.8821 8.08179 47.938 8.01226C47.9664 7.97695 47.9985 7.94717 48.0296 7.92596C48.0596 7.90545 48.0925 7.89031 48.1217 7.89031L48.1217 7.96081C48.1105 7.96081 48.0901 7.96773 48.0638 7.98574C48.0384 8.00306 48.011 8.02826 47.9864 8.0588C47.9364 8.121 47.9034 8.19838 47.9137 8.27055L47.8499 8.28134Z" fill="#6BDDB8"/>
<path d="M53.3215 8.54797C53.3389 8.5523 53.3562 8.54043 53.3602 8.52147C53.3642 8.5025 53.3533 8.48362 53.3359 8.4793L53.3215 8.54797ZM52.8574 7.89092C52.8396 7.89092 52.8252 7.90669 52.8252 7.92614C52.8252 7.9456 52.8396 7.96136 52.8574 7.96136L52.8574 7.89092ZM53.3287 8.51363C53.3359 8.4793 53.3359 8.4793 53.3359 8.4793C53.3359 8.4793 53.3359 8.4793 53.3359 8.4793C53.3359 8.4793 53.3359 8.4793 53.3359 8.4793C53.3359 8.4793 53.3359 8.4793 53.3359 8.47929C53.3358 8.47927 53.3357 8.47924 53.3355 8.47919C53.3351 8.47909 53.3345 8.47893 53.3337 8.47871C53.332 8.47826 53.3295 8.47756 53.3263 8.4766C53.3199 8.47467 53.3106 8.47169 53.2994 8.4676C53.2771 8.45936 53.2479 8.4468 53.2198 8.42944C53.1612 8.3932 53.1205 8.34509 53.1295 8.2816L53.0657 8.27082C53.05 8.38109 53.1249 8.45169 53.188 8.49072C53.2208 8.51099 53.254 8.52522 53.2788 8.53434C53.2913 8.53893 53.3018 8.54229 53.3092 8.54452C53.3129 8.54564 53.3159 8.54647 53.318 8.54704C53.3191 8.54733 53.3199 8.54755 53.3205 8.5477C53.3208 8.54778 53.321 8.54784 53.3212 8.54788C53.3213 8.54791 53.3213 8.54792 53.3214 8.54794C53.3214 8.54795 53.3214 8.54795 53.3215 8.54796C53.3215 8.54796 53.3215 8.54796 53.3215 8.54796C53.3215 8.54797 53.3215 8.54797 53.3287 8.51363ZM53.1295 8.2816C53.1439 8.17995 53.0973 8.08223 53.0413 8.01277C53.0129 7.97749 52.9807 7.94773 52.9496 7.92654C52.9196 7.90605 52.8867 7.89092 52.8574 7.89092L52.8574 7.96136C52.8686 7.96136 52.889 7.96827 52.9154 7.98627C52.9408 8.00357 52.9682 8.02875 52.9928 8.05927C53.0429 8.1214 53.0759 8.19871 53.0657 8.27082L53.1295 8.2816Z" fill="#6BDDB8"/>
<path d="M47.856 8.88299C47.8386 8.88732 47.8213 8.87545 47.8174 8.85649C47.8134 8.83753 47.8243 8.81865 47.8417 8.81432L47.856 8.88299ZM48.3201 8.22595C48.3379 8.22595 48.3524 8.24171 48.3524 8.26117C48.3524 8.28062 48.3379 8.29639 48.3201 8.29639L48.3201 8.22595ZM47.8488 8.84865C47.8417 8.81432 47.8417 8.81432 47.8416 8.81432C47.8416 8.81432 47.8416 8.81432 47.8416 8.81432C47.8416 8.81433 47.8416 8.81433 47.8416 8.81432C47.8416 8.81432 47.8417 8.81432 47.8417 8.81431C47.8418 8.81429 47.8419 8.81426 47.8421 8.81421C47.8425 8.81411 47.8431 8.81395 47.8439 8.81373C47.8455 8.81328 47.848 8.81258 47.8512 8.81162C47.8577 8.80969 47.867 8.80672 47.8781 8.80262C47.9005 8.79438 47.9297 8.78183 47.9577 8.76447C48.0163 8.72822 48.0571 8.68011 48.048 8.61662L48.1119 8.60584C48.1275 8.71611 48.0527 8.78671 47.9896 8.82574C47.9568 8.84602 47.9235 8.86024 47.8988 8.86936C47.8863 8.87395 47.8758 8.87731 47.8683 8.87954C47.8646 8.88066 47.8616 8.8815 47.8595 8.88207C47.8585 8.88235 47.8577 8.88257 47.8571 8.88272C47.8568 8.8828 47.8565 8.88286 47.8564 8.88291C47.8563 8.88293 47.8562 8.88295 47.8562 8.88296C47.8561 8.88297 47.8561 8.88297 47.8561 8.88298C47.8561 8.88298 47.8561 8.88298 47.8561 8.88299C47.856 8.88299 47.856 8.88299 47.8488 8.84865ZM48.048 8.61662C48.0336 8.51497 48.0803 8.41725 48.1362 8.34779C48.1647 8.31251 48.1968 8.28275 48.2279 8.26156C48.258 8.24108 48.2909 8.22595 48.3201 8.22595L48.3201 8.29639C48.3089 8.29639 48.2885 8.30329 48.2621 8.32129C48.2368 8.33859 48.2093 8.36377 48.1847 8.39429C48.1347 8.45642 48.1016 8.53373 48.1119 8.60584L48.048 8.61662Z" fill="#6BDDB8"/>
<path d="M53.1242 8.88299C53.1416 8.88732 53.1589 8.87545 53.1629 8.85649C53.1668 8.83753 53.1559 8.81865 53.1386 8.81432L53.1242 8.88299ZM52.6601 8.22595C52.6423 8.22595 52.6278 8.24171 52.6278 8.26117C52.6278 8.28062 52.6423 8.29639 52.6601 8.29639L52.6601 8.22595ZM53.1314 8.84865C53.1386 8.81432 53.1386 8.81432 53.1386 8.81432C53.1386 8.81432 53.1386 8.81432 53.1386 8.81432C53.1386 8.81433 53.1386 8.81433 53.1386 8.81432C53.1386 8.81432 53.1386 8.81432 53.1385 8.81431C53.1385 8.81429 53.1383 8.81426 53.1381 8.81421C53.1378 8.81411 53.1372 8.81395 53.1363 8.81373C53.1347 8.81328 53.1322 8.81258 53.129 8.81162C53.1225 8.80969 53.1132 8.80672 53.1021 8.80262C53.0797 8.79438 53.0506 8.78183 53.0225 8.76447C52.9639 8.72822 52.9232 8.68011 52.9322 8.61662L52.8684 8.60584C52.8527 8.71611 52.9275 8.78671 52.9906 8.82574C53.0234 8.84602 53.0567 8.86024 53.0815 8.86936C53.0939 8.87395 53.1044 8.87731 53.1119 8.87954C53.1156 8.88066 53.1186 8.8815 53.1207 8.88207C53.1217 8.88235 53.1226 8.88257 53.1231 8.88272C53.1234 8.8828 53.1237 8.88286 53.1239 8.88291C53.1239 8.88293 53.124 8.88295 53.1241 8.88296C53.1241 8.88297 53.1241 8.88297 53.1241 8.88298C53.1242 8.88298 53.1242 8.88298 53.1242 8.88299C53.1242 8.88299 53.1242 8.88299 53.1314 8.84865ZM52.9322 8.61662C52.9466 8.51497 52.9 8.41725 52.844 8.34779C52.8156 8.31251 52.7834 8.28275 52.7523 8.26156C52.7223 8.24108 52.6893 8.22595 52.6601 8.22595L52.6601 8.29639C52.6713 8.29639 52.6917 8.30329 52.7181 8.32129C52.7435 8.33859 52.7709 8.36377 52.7955 8.39429C52.8456 8.45642 52.8786 8.53373 52.8684 8.60584L52.9322 8.61662Z" fill="#6BDDB8"/>
<path d="M48.0537 9.2597C48.0363 9.26403 48.019 9.25216 48.015 9.2332C48.011 9.21424 48.0219 9.19535 48.0393 9.19103L48.0537 9.2597ZM48.5177 8.60265C48.5356 8.60265 48.55 8.61842 48.55 8.63787C48.55 8.65732 48.5356 8.67309 48.5177 8.67309L48.5177 8.60265ZM48.0465 9.22536C48.0393 9.19103 48.0393 9.19103 48.0393 9.19103C48.0393 9.19103 48.0393 9.19103 48.0393 9.19103C48.0393 9.19103 48.0393 9.19103 48.0393 9.19103C48.0393 9.19103 48.0393 9.19103 48.0393 9.19102C48.0394 9.191 48.0395 9.19097 48.0397 9.19092C48.0401 9.19082 48.0407 9.19066 48.0415 9.19044C48.0432 9.18999 48.0457 9.18929 48.0489 9.18833C48.0553 9.1864 48.0646 9.18343 48.0757 9.17933C48.0981 9.17109 48.1273 9.15853 48.1554 9.14117C48.214 9.10493 48.2547 9.05682 48.2457 8.99333L48.3095 8.98255C48.3252 9.09282 48.2503 9.16342 48.1872 9.20245C48.1544 9.22272 48.1212 9.23695 48.0964 9.24607C48.0839 9.25066 48.0734 9.25402 48.066 9.25625C48.0622 9.25737 48.0593 9.25821 48.0572 9.25878C48.0561 9.25906 48.0553 9.25928 48.0547 9.25943C48.0544 9.25951 48.0542 9.25957 48.054 9.25961C48.0539 9.25964 48.0538 9.25966 48.0538 9.25967C48.0538 9.25968 48.0537 9.25968 48.0537 9.25969C48.0537 9.25969 48.0537 9.25969 48.0537 9.25969C48.0537 9.2597 48.0537 9.2597 48.0465 9.22536ZM48.2457 8.99333C48.2312 8.89168 48.2779 8.79396 48.3339 8.7245C48.3623 8.68922 48.3945 8.65946 48.4255 8.63827C48.4556 8.61778 48.4885 8.60265 48.5177 8.60265L48.5177 8.67309C48.5066 8.67309 48.4862 8.68 48.4598 8.698C48.4344 8.7153 48.407 8.74048 48.3824 8.771C48.3323 8.83313 48.2993 8.91044 48.3095 8.98255L48.2457 8.99333Z" fill="#6BDDB8"/>
<path d="M52.9262 9.2597C52.9436 9.26403 52.9609 9.25216 52.9649 9.2332C52.9688 9.21424 52.958 9.19535 52.9406 9.19103L52.9262 9.2597ZM52.4621 8.60265C52.4443 8.60265 52.4298 8.61842 52.4298 8.63787C52.4298 8.65732 52.4443 8.67309 52.4621 8.67309L52.4621 8.60265ZM52.9334 9.22536C52.9406 9.19103 52.9406 9.19103 52.9406 9.19103C52.9406 9.19103 52.9406 9.19103 52.9406 9.19103C52.9406 9.19103 52.9406 9.19103 52.9406 9.19103C52.9406 9.19103 52.9406 9.19103 52.9405 9.19102C52.9405 9.191 52.9403 9.19097 52.9401 9.19092C52.9398 9.19082 52.9392 9.19066 52.9383 9.19044C52.9367 9.18999 52.9342 9.18929 52.931 9.18833C52.9245 9.1864 52.9153 9.18343 52.9041 9.17933C52.8817 9.17109 52.8526 9.15853 52.8245 9.14117C52.7659 9.10493 52.7252 9.05682 52.7342 8.99333L52.6704 8.98255C52.6547 9.09282 52.7295 9.16342 52.7926 9.20245C52.8254 9.22272 52.8587 9.23695 52.8835 9.24607C52.8959 9.25066 52.9064 9.25402 52.9139 9.25625C52.9176 9.25737 52.9206 9.25821 52.9227 9.25878C52.9237 9.25906 52.9246 9.25928 52.9251 9.25943C52.9254 9.25951 52.9257 9.25957 52.9259 9.25961C52.9259 9.25964 52.926 9.25966 52.9261 9.25967C52.9261 9.25968 52.9261 9.25968 52.9261 9.25969C52.9262 9.25969 52.9262 9.25969 52.9262 9.25969C52.9262 9.2597 52.9262 9.2597 52.9334 9.22536ZM52.7342 8.99333C52.7486 8.89168 52.702 8.79396 52.646 8.7245C52.6176 8.68922 52.5854 8.65946 52.5543 8.63827C52.5243 8.61778 52.4914 8.60265 52.4621 8.60265L52.4621 8.67309C52.4733 8.67309 52.4937 8.68 52.5201 8.698C52.5455 8.7153 52.5729 8.74048 52.5975 8.771C52.6476 8.83313 52.6806 8.91044 52.6704 8.98255L52.7342 8.99333Z" fill="#6BDDB8"/>
<path d="M48.2731 9.55786C48.2557 9.56218 48.2384 9.55032 48.2344 9.53136C48.2305 9.51239 48.2413 9.49351 48.2587 9.48918L48.2731 9.55786ZM48.7372 8.90081C48.755 8.90081 48.7695 8.91658 48.7695 8.93603C48.7695 8.95548 48.755 8.97125 48.7372 8.97125L48.7372 8.90081ZM48.2659 9.52352C48.2587 9.48918 48.2587 9.48919 48.2587 9.48919C48.2587 9.48919 48.2587 9.48919 48.2587 9.48919C48.2587 9.48919 48.2587 9.48919 48.2587 9.48919C48.2587 9.48919 48.2587 9.48918 48.2587 9.48917C48.2588 9.48916 48.259 9.48912 48.2591 9.48907C48.2595 9.48898 48.2601 9.48882 48.2609 9.48859C48.2626 9.48815 48.2651 9.48745 48.2683 9.48648C48.2747 9.48455 48.284 9.48158 48.2952 9.47749C48.3176 9.46924 48.3467 9.45669 48.3748 9.43933C48.4334 9.40309 48.4741 9.35498 48.4651 9.29149L48.5289 9.28071C48.5446 9.39098 48.4698 9.46158 48.4066 9.50061C48.3739 9.52088 48.3406 9.5351 48.3158 9.54423C48.3033 9.54882 48.2928 9.55218 48.2854 9.55441C48.2817 9.55552 48.2787 9.55636 48.2766 9.55693C48.2755 9.55722 48.2747 9.55744 48.2741 9.55759C48.2738 9.55767 48.2736 9.55773 48.2734 9.55777C48.2733 9.55779 48.2733 9.55781 48.2732 9.55783C48.2732 9.55783 48.2732 9.55784 48.2731 9.55784C48.2731 9.55785 48.2731 9.55785 48.2731 9.55785C48.2731 9.55785 48.2731 9.55786 48.2659 9.52352ZM48.4651 9.29149C48.4507 9.18984 48.4973 9.09211 48.5533 9.02265C48.5817 8.98737 48.6139 8.95762 48.645 8.93643C48.675 8.91594 48.7079 8.90081 48.7372 8.90081L48.7372 8.97125C48.726 8.97125 48.7056 8.97816 48.6792 8.99616C48.6538 9.01346 48.6264 9.03864 48.6018 9.06915C48.5517 9.13129 48.5187 9.2086 48.5289 9.28071L48.4651 9.29149Z" fill="#6BDDB8"/>
<path d="M52.7071 9.55786C52.7245 9.56218 52.7418 9.55032 52.7458 9.53136C52.7498 9.51239 52.7389 9.49351 52.7215 9.48918L52.7071 9.55786ZM52.2431 8.90081C52.2252 8.90081 52.2108 8.91658 52.2108 8.93603C52.2108 8.95548 52.2252 8.97125 52.2431 8.97125L52.2431 8.90081ZM52.7143 9.52352C52.7215 9.48918 52.7215 9.48919 52.7215 9.48919C52.7215 9.48919 52.7215 9.48919 52.7215 9.48919C52.7215 9.48919 52.7215 9.48919 52.7215 9.48919C52.7215 9.48919 52.7215 9.48918 52.7215 9.48917C52.7214 9.48916 52.7213 9.48912 52.7211 9.48907C52.7207 9.48898 52.7201 9.48882 52.7193 9.48859C52.7176 9.48815 52.7151 9.48745 52.7119 9.48648C52.7055 9.48455 52.6962 9.48158 52.6851 9.47749C52.6627 9.46924 52.6335 9.45669 52.6054 9.43933C52.5468 9.40309 52.5061 9.35498 52.5151 9.29149L52.4513 9.28071C52.4356 9.39098 52.5105 9.46158 52.5736 9.50061C52.6064 9.52088 52.6396 9.5351 52.6644 9.54423C52.6769 9.54882 52.6874 9.55218 52.6948 9.55441C52.6986 9.55552 52.7015 9.55636 52.7036 9.55693C52.7047 9.55722 52.7055 9.55744 52.7061 9.55759C52.7064 9.55767 52.7066 9.55773 52.7068 9.55777C52.7069 9.55779 52.707 9.55781 52.707 9.55783C52.707 9.55783 52.7071 9.55784 52.7071 9.55784C52.7071 9.55785 52.7071 9.55785 52.7071 9.55785C52.7071 9.55785 52.7071 9.55786 52.7143 9.52352ZM52.5151 9.29149C52.5296 9.18984 52.4829 9.09211 52.4269 9.02265C52.3985 8.98737 52.3663 8.95762 52.3353 8.93643C52.3052 8.91594 52.2723 8.90081 52.2431 8.90081L52.2431 8.97125C52.2542 8.97125 52.2746 8.97816 52.301 8.99616C52.3264 9.01346 52.3538 9.03864 52.3784 9.06915C52.4285 9.13129 52.4615 9.2086 52.4513 9.28071L52.5151 9.29149Z" fill="#6BDDB8"/>
<path d="M48.5937 9.77337C48.5763 9.7777 48.559 9.76583 48.555 9.74687C48.5511 9.72791 48.5619 9.70903 48.5793 9.7047L48.5937 9.77337ZM49.0578 9.11633C49.0756 9.11633 49.0901 9.13209 49.0901 9.15155C49.0901 9.171 49.0756 9.18677 49.0578 9.18677L49.0578 9.11633ZM48.5865 9.73904C48.5793 9.7047 48.5793 9.7047 48.5793 9.7047C48.5793 9.7047 48.5793 9.7047 48.5793 9.7047C48.5793 9.70471 48.5793 9.70471 48.5793 9.70471C48.5793 9.7047 48.5793 9.7047 48.5794 9.70469C48.5794 9.70467 48.5796 9.70464 48.5798 9.70459C48.5801 9.70449 48.5807 9.70433 48.5816 9.70411C48.5832 9.70366 48.5857 9.70296 48.5889 9.702C48.5954 9.70007 48.6046 9.6971 48.6158 9.693C48.6382 9.68476 48.6673 9.67221 48.6954 9.65485C48.754 9.6186 48.7947 9.57049 48.7857 9.507L48.8495 9.49622C48.8652 9.60649 48.7904 9.67709 48.7273 9.71612C48.6945 9.7364 48.6612 9.75062 48.6364 9.75974C48.624 9.76433 48.6135 9.76769 48.606 9.76992C48.6023 9.77104 48.5993 9.77188 48.5972 9.77245C48.5962 9.77273 48.5953 9.77295 48.5947 9.7731C48.5945 9.77318 48.5942 9.77324 48.594 9.77329C48.594 9.77331 48.5939 9.77333 48.5938 9.77334C48.5938 9.77335 48.5938 9.77335 48.5938 9.77336C48.5937 9.77336 48.5937 9.77337 48.5937 9.77337C48.5937 9.77337 48.5937 9.77337 48.5865 9.73904ZM48.7857 9.507C48.7713 9.40535 48.8179 9.30763 48.8739 9.23817C48.9023 9.20289 48.9345 9.17313 48.9656 9.15194C48.9956 9.13146 49.0285 9.11633 49.0578 9.11633L49.0578 9.18677C49.0466 9.18677 49.0262 9.19367 48.9998 9.21167C48.9744 9.22897 48.947 9.25415 48.9224 9.28467C48.8723 9.3468 48.8393 9.42411 48.8495 9.49622L48.7857 9.507Z" fill="#6BDDB8"/>
<path d="M52.3862 9.77337C52.4036 9.7777 52.4209 9.76584 52.4249 9.74687C52.4289 9.72791 52.418 9.70903 52.4006 9.7047L52.3862 9.77337ZM51.9221 9.11633C51.9043 9.11633 51.8899 9.13209 51.8899 9.15155C51.8899 9.171 51.9043 9.18677 51.9221 9.18677L51.9221 9.11633ZM52.3934 9.73904C52.4006 9.7047 52.4006 9.7047 52.4006 9.7047C52.4006 9.7047 52.4006 9.7047 52.4006 9.7047C52.4006 9.70471 52.4006 9.70471 52.4006 9.70471C52.4006 9.7047 52.4006 9.7047 52.4006 9.70469C52.4005 9.70467 52.4004 9.70464 52.4002 9.70459C52.3998 9.70449 52.3992 9.70433 52.3984 9.70411C52.3967 9.70366 52.3942 9.70296 52.391 9.702C52.3846 9.70007 52.3753 9.6971 52.3641 9.693C52.3417 9.68476 52.3126 9.67221 52.2845 9.65485C52.2259 9.6186 52.1852 9.57049 52.1942 9.507L52.1304 9.49622C52.1147 9.60649 52.1895 9.67709 52.2527 9.71612C52.2855 9.7364 52.3187 9.75062 52.3435 9.75974C52.356 9.76433 52.3665 9.76769 52.3739 9.76992C52.3776 9.77104 52.3806 9.77188 52.3827 9.77245C52.3838 9.77273 52.3846 9.77295 52.3852 9.7731C52.3855 9.77318 52.3857 9.77324 52.3859 9.77329C52.386 9.77331 52.386 9.77333 52.3861 9.77334C52.3861 9.77335 52.3861 9.77335 52.3862 9.77336C52.3862 9.77336 52.3862 9.77337 52.3862 9.77337C52.3862 9.77337 52.3862 9.77337 52.3934 9.73904ZM52.1942 9.507C52.2086 9.40535 52.162 9.30763 52.106 9.23817C52.0776 9.20289 52.0454 9.17313 52.0143 9.15194C51.9843 9.13146 51.9514 9.11633 51.9221 9.11633L51.9221 9.18677C51.9333 9.18677 51.9537 9.19367 51.9801 9.21167C52.0055 9.22897 52.0329 9.25415 52.0575 9.28467C52.1076 9.3468 52.1406 9.42411 52.1304 9.49622L52.1942 9.507Z" fill="#6BDDB8"/>
<path d="M48.9631 10.0008C48.9457 10.0052 48.9284 9.99331 48.9244 9.97435C48.9205 9.95539 48.9313 9.9365 48.9487 9.93218L48.9631 10.0008ZM49.4272 9.3438C49.445 9.3438 49.4595 9.35957 49.4595 9.37902C49.4595 9.39847 49.445 9.41424 49.4272 9.41424L49.4272 9.3438ZM48.9559 9.96651C48.9487 9.93218 48.9487 9.93218 48.9487 9.93218C48.9487 9.93218 48.9487 9.93218 48.9487 9.93218C48.9487 9.93218 48.9487 9.93218 48.9487 9.93218C48.9487 9.93218 48.9487 9.93218 48.9488 9.93217C48.9488 9.93215 48.949 9.93212 48.9491 9.93207C48.9495 9.93197 48.9501 9.93181 48.9509 9.93159C48.9526 9.93114 48.9551 9.93044 48.9583 9.92948C48.9647 9.92755 48.974 9.92458 48.9852 9.92048C49.0076 9.91224 49.0367 9.89968 49.0648 9.88232C49.1234 9.84608 49.1641 9.79797 49.1551 9.73448L49.2189 9.7237C49.2346 9.83397 49.1598 9.90457 49.0966 9.9436C49.0639 9.96387 49.0306 9.9781 49.0058 9.98722C48.9933 9.99181 48.9829 9.99517 48.9754 9.9974C48.9717 9.99852 48.9687 9.99936 48.9666 9.99993C48.9656 10.0002 48.9647 10.0004 48.9641 10.0006C48.9638 10.0007 48.9636 10.0007 48.9634 10.0008C48.9633 10.0008 48.9633 10.0008 48.9632 10.0008C48.9632 10.0008 48.9632 10.0008 48.9631 10.0008C48.9631 10.0008 48.9631 10.0008 48.9631 10.0008C48.9631 10.0008 48.9631 10.0008 48.9559 9.96651ZM49.1551 9.73448C49.1407 9.63283 49.1873 9.53511 49.2433 9.46565C49.2717 9.43037 49.3039 9.40061 49.335 9.37942C49.365 9.35893 49.3979 9.3438 49.4272 9.3438L49.4272 9.41424C49.416 9.41424 49.3956 9.42115 49.3692 9.43915C49.3438 9.45645 49.3164 9.48163 49.2918 9.51215C49.2417 9.57428 49.2087 9.65159 49.2189 9.7237L49.1551 9.73448Z" fill="#6BDDB8"/>
<path d="M52.0168 10.0008C52.0342 10.0052 52.0515 9.99331 52.0555 9.97435C52.0595 9.95539 52.0486 9.9365 52.0312 9.93218L52.0168 10.0008ZM51.5528 9.3438C51.5349 9.3438 51.5205 9.35957 51.5205 9.37902C51.5205 9.39847 51.5349 9.41424 51.5528 9.41424L51.5528 9.3438ZM52.024 9.96651C52.0312 9.93218 52.0312 9.93218 52.0312 9.93218C52.0312 9.93218 52.0312 9.93218 52.0312 9.93218C52.0312 9.93218 52.0312 9.93218 52.0312 9.93218C52.0312 9.93218 52.0312 9.93218 52.0312 9.93217C52.0311 9.93215 52.031 9.93212 52.0308 9.93207C52.0304 9.93197 52.0298 9.93181 52.029 9.93159C52.0273 9.93114 52.0248 9.93044 52.0216 9.92948C52.0152 9.92755 52.0059 9.92458 51.9948 9.92048C51.9724 9.91224 51.9432 9.89968 51.9151 9.88232C51.8565 9.84608 51.8158 9.79797 51.8248 9.73448L51.761 9.7237C51.7453 9.83397 51.8202 9.90457 51.8833 9.9436C51.9161 9.96387 51.9493 9.9781 51.9741 9.98722C51.9866 9.99181 51.9971 9.99517 52.0045 9.9974C52.0083 9.99852 52.0112 9.99936 52.0133 9.99993C52.0144 10.0002 52.0152 10.0004 52.0158 10.0006C52.0161 10.0007 52.0163 10.0007 52.0165 10.0008C52.0166 10.0008 52.0167 10.0008 52.0167 10.0008C52.0167 10.0008 52.0168 10.0008 52.0168 10.0008C52.0168 10.0008 52.0168 10.0008 52.0168 10.0008C52.0168 10.0008 52.0168 10.0008 52.024 9.96651ZM51.8248 9.73448C51.8392 9.63283 51.7926 9.5351 51.7366 9.46565C51.7082 9.43037 51.676 9.40061 51.645 9.37942C51.6149 9.35893 51.582 9.3438 51.5528 9.3438L51.5528 9.41424C51.5639 9.41424 51.5843 9.42115 51.6107 9.43915C51.6361 9.45645 51.6635 9.48163 51.6881 9.51215C51.7382 9.57428 51.7712 9.65159 51.761 9.7237L51.8248 9.73448Z" fill="#6BDDB8"/>
<path d="M49.4035 10.1456C49.3861 10.1499 49.3688 10.138 49.3648 10.1191C49.3608 10.1001 49.3717 10.0812 49.3891 10.0769L49.4035 10.1456ZM49.8675 9.48852C49.8854 9.48852 49.8998 9.50429 49.8998 9.52374C49.8998 9.54319 49.8854 9.55896 49.8675 9.55896L49.8675 9.48852ZM49.3963 10.1112C49.3891 10.0769 49.3891 10.0769 49.3891 10.0769C49.3891 10.0769 49.3891 10.0769 49.3891 10.0769C49.3891 10.0769 49.3891 10.0769 49.3891 10.0769C49.3891 10.0769 49.3891 10.0769 49.3891 10.0769C49.3892 10.0769 49.3893 10.0768 49.3895 10.0768C49.3899 10.0767 49.3905 10.0765 49.3913 10.0763C49.393 10.0759 49.3954 10.0752 49.3987 10.0742C49.4051 10.0723 49.4144 10.0693 49.4255 10.0652C49.4479 10.057 49.4771 10.0444 49.5052 10.027C49.5638 9.9908 49.6045 9.94268 49.5955 9.87919L49.6593 9.86841C49.675 9.97868 49.6001 10.0493 49.537 10.0883C49.5042 10.1086 49.471 10.1228 49.4462 10.1319C49.4337 10.1365 49.4232 10.1399 49.4158 10.1421C49.412 10.1432 49.4091 10.1441 49.407 10.1446C49.4059 10.1449 49.4051 10.1451 49.4045 10.1453C49.4042 10.1454 49.404 10.1454 49.4038 10.1455C49.4037 10.1455 49.4036 10.1455 49.4036 10.1455C49.4036 10.1455 49.4035 10.1455 49.4035 10.1456C49.4035 10.1456 49.4035 10.1456 49.4035 10.1456C49.4035 10.1456 49.4035 10.1456 49.3963 10.1112ZM49.5955 9.87919C49.581 9.77754 49.6277 9.67982 49.6836 9.61036C49.7121 9.57508 49.7443 9.54532 49.7753 9.52414C49.8054 9.50365 49.8383 9.48852 49.8675 9.48852L49.8675 9.55896C49.8564 9.55896 49.836 9.56587 49.8096 9.58387C49.7842 9.60117 49.7568 9.62635 49.7322 9.65686C49.6821 9.719 49.6491 9.79631 49.6593 9.86841L49.5955 9.87919Z" fill="#6BDDB8"/>
<path d="M51.5764 10.1456C51.5938 10.1499 51.6111 10.138 51.6151 10.1191C51.619 10.1001 51.6082 10.0812 51.5908 10.0769L51.5764 10.1456ZM51.1123 9.48852C51.0945 9.48852 51.08 9.50429 51.08 9.52374C51.08 9.54319 51.0945 9.55896 51.1123 9.55896L51.1123 9.48852ZM51.5836 10.1112C51.5908 10.0769 51.5908 10.0769 51.5908 10.0769C51.5908 10.0769 51.5908 10.0769 51.5908 10.0769C51.5908 10.0769 51.5908 10.0769 51.5908 10.0769C51.5908 10.0769 51.5908 10.0769 51.5907 10.0769C51.5907 10.0769 51.5905 10.0768 51.5903 10.0768C51.59 10.0767 51.5894 10.0765 51.5885 10.0763C51.5869 10.0759 51.5844 10.0752 51.5812 10.0742C51.5748 10.0723 51.5655 10.0693 51.5543 10.0652C51.5319 10.057 51.5028 10.0444 51.4747 10.027C51.4161 9.9908 51.3754 9.94268 51.3844 9.87919L51.3206 9.86841C51.3049 9.97868 51.3797 10.0493 51.4428 10.0883C51.4756 10.1086 51.5089 10.1228 51.5337 10.1319C51.5461 10.1365 51.5566 10.1399 51.5641 10.1421C51.5678 10.1432 51.5708 10.1441 51.5729 10.1446C51.5739 10.1449 51.5748 10.1451 51.5754 10.1453C51.5757 10.1454 51.5759 10.1454 51.5761 10.1455C51.5761 10.1455 51.5762 10.1455 51.5763 10.1455C51.5763 10.1455 51.5763 10.1455 51.5764 10.1456C51.5764 10.1456 51.5764 10.1456 51.5764 10.1456C51.5764 10.1456 51.5764 10.1456 51.5836 10.1112ZM51.3844 9.87919C51.3988 9.77754 51.3522 9.67982 51.2962 9.61036C51.2678 9.57508 51.2356 9.54532 51.2045 9.52414C51.1745 9.50365 51.1416 9.48852 51.1123 9.48852L51.1123 9.55896C51.1235 9.55896 51.1439 9.56587 51.1703 9.58387C51.1957 9.60117 51.2231 9.62635 51.2477 9.65686C51.2978 9.719 51.3308 9.79631 51.3206 9.86841L51.3844 9.87919Z" fill="#6BDDB8"/>
<path d="M49.9083 10.2652C49.891 10.2695 49.8736 10.2577 49.8697 10.2387C49.8657 10.2197 49.8766 10.2008 49.894 10.1965L49.9083 10.2652ZM50.3724 9.60815C50.3903 9.60815 50.4047 9.62392 50.4047 9.64337C50.4047 9.66282 50.3903 9.67859 50.3724 9.67859L50.3724 9.60815ZM49.9012 10.2309C49.894 10.1965 49.894 10.1965 49.894 10.1965C49.894 10.1965 49.8939 10.1965 49.8939 10.1965C49.8939 10.1965 49.8939 10.1965 49.8939 10.1965C49.8939 10.1965 49.894 10.1965 49.894 10.1965C49.8941 10.1965 49.8942 10.1965 49.8944 10.1964C49.8948 10.1963 49.8954 10.1962 49.8962 10.1959C49.8978 10.1955 49.9003 10.1948 49.9035 10.1938C49.91 10.1919 49.9193 10.1889 49.9304 10.1848C49.9528 10.1766 49.982 10.164 50.01 10.1467C50.0686 10.1104 50.1094 10.0623 50.1004 9.99882L50.1642 9.98804C50.1798 10.0983 50.105 10.1689 50.0419 10.2079C50.0091 10.2282 49.9759 10.2424 49.9511 10.2516C49.9386 10.2562 49.9281 10.2595 49.9206 10.2617C49.9169 10.2629 49.9139 10.2637 49.9118 10.2643C49.9108 10.2646 49.91 10.2648 49.9094 10.2649C49.9091 10.265 49.9089 10.2651 49.9087 10.2651C49.9086 10.2651 49.9085 10.2651 49.9085 10.2652C49.9084 10.2652 49.9084 10.2652 49.9084 10.2652C49.9084 10.2652 49.9084 10.2652 49.9084 10.2652C49.9084 10.2652 49.9083 10.2652 49.9012 10.2309ZM50.1004 9.99882C50.0859 9.89717 50.1326 9.79945 50.1885 9.72999C50.217 9.69471 50.2491 9.66495 50.2802 9.64376C50.3103 9.62328 50.3432 9.60815 50.3724 9.60815L50.3724 9.67859C50.3612 9.67859 50.3409 9.68549 50.3145 9.70349C50.2891 9.72079 50.2616 9.74597 50.237 9.77649C50.187 9.83863 50.1539 9.91593 50.1642 9.98804L50.1004 9.99882Z" fill="#6BDDB8"/>
<path d="M51.0715 10.2652C51.0888 10.2695 51.1062 10.2577 51.1101 10.2387C51.1141 10.2197 51.1032 10.2008 51.0858 10.1965L51.0715 10.2652ZM50.6074 9.60815C50.5895 9.60815 50.5751 9.62392 50.5751 9.64337C50.5751 9.66282 50.5895 9.67859 50.6074 9.67859L50.6074 9.60815ZM51.0786 10.2309C51.0858 10.1965 51.0858 10.1965 51.0858 10.1965C51.0858 10.1965 51.0858 10.1965 51.0859 10.1965C51.0859 10.1965 51.0859 10.1965 51.0859 10.1965C51.0858 10.1965 51.0858 10.1965 51.0858 10.1965C51.0857 10.1965 51.0856 10.1965 51.0854 10.1964C51.085 10.1963 51.0844 10.1962 51.0836 10.1959C51.082 10.1955 51.0795 10.1948 51.0762 10.1938C51.0698 10.1919 51.0605 10.1889 51.0494 10.1848C51.027 10.1766 50.9978 10.164 50.9698 10.1467C50.9112 10.1104 50.8704 10.0623 50.8794 9.99882L50.8156 9.98804C50.8 10.0983 50.8748 10.1689 50.9379 10.2079C50.9707 10.2282 51.0039 10.2424 51.0287 10.2516C51.0412 10.2562 51.0517 10.2595 51.0591 10.2617C51.0629 10.2629 51.0659 10.2637 51.0679 10.2643C51.069 10.2646 51.0698 10.2648 51.0704 10.2649C51.0707 10.265 51.0709 10.2651 51.0711 10.2651C51.0712 10.2651 51.0713 10.2651 51.0713 10.2652C51.0714 10.2652 51.0714 10.2652 51.0714 10.2652C51.0714 10.2652 51.0714 10.2652 51.0714 10.2652C51.0714 10.2652 51.0715 10.2652 51.0786 10.2309ZM50.8794 9.99882C50.8939 9.89717 50.8472 9.79945 50.7913 9.72999C50.7628 9.69471 50.7307 9.66495 50.6996 9.64376C50.6695 9.62328 50.6366 9.60815 50.6074 9.60815L50.6074 9.67859C50.6186 9.67859 50.6389 9.68549 50.6653 9.70349C50.6907 9.72079 50.7182 9.74597 50.7428 9.77649C50.7928 9.83863 50.8259 9.91593 50.8156 9.98804L50.8794 9.99882Z" fill="#6BDDB8"/>
<path d="M38.4324 36.5497H39.1597V38.0453H38.4324V36.5497Z" fill="#A4AFC1"/>
<path d="M40.0689 38.7931H41.5235V39.5409H40.0689V38.7931Z" fill="#A4AFC1"/>
<path d="M21.1989 46.2777L20.8791 45.6705L22.0602 45.0129L22.38 45.6201L21.1989 46.2777Z" fill="#A4AFC1"/>
<path d="M22.251 43.925L21.6114 42.7106L22.2019 42.3818L22.8415 43.5962L22.251 43.925Z" fill="#A4AFC1"/>
<path d="M24.4702 36.5498H32.1067V53.3749H24.4702V36.5498Z" fill="#F3F3F1"/>
<path d="M32.1066 40.2888H38.6522V53.375H32.1066V40.2888Z" fill="#2FDF84"/>
<path d="M24.4702 36.5498H26.1066V53.3749H24.4702V36.5498Z" fill="#D5DBE1"/>
<path d="M32.1066 40.2888H33.743V53.375H32.1066V40.2888Z" fill="#00B871"/>
<path d="M32.6521 53.3749H31.5612V37.1106H25.0156V53.3749H23.9247V36.5498C23.9247 36.2402 24.1691 35.989 24.4701 35.989H32.1067C32.4078 35.989 32.6521 36.2402 32.6521 36.5498V53.3749Z" fill="#222222"/>
<path d="M39.1977 53.9357H38.1068V40.8495H34.1067V39.7278H38.6522C38.9533 39.7278 39.1977 39.9791 39.1977 40.2887V53.9357Z" fill="#222222"/>
<path d="M26.1066 41.9712H27.1976V44.2145H26.1066V41.9712Z" fill="#222222"/>
<path d="M29.3793 41.9712H30.4703V44.2145H29.3793V41.9712Z" fill="#222222"/>
<path d="M26.1066 38.2323H27.1976V40.4756H26.1066V38.2323Z" fill="#222222"/>
<path d="M29.3793 38.2323H30.4703V40.4756H29.3793V38.2323Z" fill="#222222"/>
<path d="M26.1066 45.7101H27.1976V47.9535H26.1066V45.7101Z" fill="#222222"/>
<path d="M29.3793 45.7101H30.4703V47.9535H29.3793V45.7101Z" fill="#222222"/>
<path d="M26.1066 49.449H27.1976V51.6924H26.1066V49.449Z" fill="#222222"/>
<path d="M29.3793 49.449H30.4703V51.6924H29.3793V49.449Z" fill="#222222"/>
<path d="M33.7429 45.7101H34.8339V47.9535H33.7429V45.7101Z" fill="#222222"/>
<path d="M36.2885 45.7101H37.3794V47.9535H36.2885V45.7101Z" fill="#222222"/>
<path d="M33.7429 41.9712H34.8339V44.2145H33.7429V41.9712Z" fill="#222222"/>
<path d="M36.2885 41.9712H37.3794V44.2145H36.2885V41.9712Z" fill="#222222"/>
<path d="M33.7429 49.449H34.8339V51.8793H33.7429V49.449Z" fill="#222222"/>
<path d="M36.2885 49.449H37.3794V51.8793H36.2885V49.449Z" fill="#222222"/>
<path d="M19.5609 52.814H42.8342V53.9357H19.5609V52.814Z" fill="#222222"/>
<rect x="19.6788" y="26.6885" width="24.4963" height="0.82367" fill="white"/>
<rect x="45.0175" y="26.6885" width="1.16102" height="0.82367" fill="white"/>
<rect x="17.6454" y="26.6885" width="1.16102" height="0.82367" fill="white"/>
<defs>
<clipPath id="clip0">
<rect width="11.3528" height="11.3528" fill="white" transform="translate(49.3481 10.6409)"/>
</clipPath>
</defs>
</svg>
